<?xml version="1.0" encoding="UTF-8"?>
<svg id="Layer_1" data-name="Layer 1" xmlns="http://www.w3.org/2000/svg" viewBox="0 0 444.75 345.57">
  <defs>
    <style>
      .cls-1 {
        fill: #ecf5eb;
      }

      .cls-1, .cls-2, .cls-3, .cls-4, .cls-5, .cls-6, .cls-7, .cls-8, .cls-9, .cls-10, .cls-11, .cls-12, .cls-13, .cls-14, .cls-15, .cls-16, .cls-17, .cls-18, .cls-19, .cls-20, .cls-21, .cls-22, .cls-23, .cls-24, .cls-25, .cls-26, .cls-27, .cls-28, .cls-29, .cls-30, .cls-31, .cls-32, .cls-33, .cls-34, .cls-35, .cls-36, .cls-37, .cls-38, .cls-39 {
        stroke-width: 0px;
      }

      .cls-2 {
        fill: #055305;
      }

      .cls-3 {
        fill: #029002;
      }

      .cls-4 {
        fill: #86c786;
      }

      .cls-5 {
        fill: #58b458;
      }

      .cls-6 {
        fill: none;
      }

      .cls-7 {
        fill: #0c590b;
      }

      .cls-8 {
        fill: #019001;
      }

      .cls-9 {
        fill: #059005;
      }

      .cls-10 {
        fill: #1a961c;
      }

      .cls-11 {
        fill: #32a132;
      }

      .cls-12 {
        fill: #78c176;
      }

      .cls-13 {
        fill: #0d590d;
      }

      .cls-14 {
        fill: #2a9e29;
      }

      .cls-15 {
        fill: #48ad4a;
      }

      .cls-16 {
        fill: #46aa46;
      }

      .cls-17 {
        fill: #c3d6c4;
      }

      .cls-18 {
        fill: #009000;
      }

      .cls-19 {
        fill: #048f04;
      }

      .cls-20 {
        fill: #259d25;
      }

      .cls-21 {
        fill: #30a131;
      }

      .cls-22 {
        fill: #38a338;
      }

      .cls-23 {
        fill: #80a57f;
      }

      .cls-24 {
        fill: #49ac4a;
      }

      .cls-25 {
        fill: #77c078;
      }

      .cls-26 {
        fill: #015201;
      }

      .cls-27 {
        fill: #015202;
      }

      .cls-28 {
        fill: #49ab49;
      }

      .cls-29 {
        fill: #45a945;
      }

      .cls-30 {
        fill: #0e940f;
      }

      .cls-31 {
        fill: #8dcc8e;
      }

      .cls-32 {
        fill: #039103;
      }

      .cls-33 {
        fill: #019101;
      }

      .cls-34 {
        fill: #3eaa41;
      }

      .cls-35 {
        fill: #005201;
      }

      .cls-36 {
        fill: #025202;
      }

      .cls-37 {
        fill: #67bb66;
      }

      .cls-40 {
        fill: #fff;
        stroke: #fff;
        stroke-miterlimit: 10;
      }

      .cls-38 {
        fill: #40a640;
      }

      .cls-39 {
        fill: #019002;
      }
    </style>
  </defs>
  <path class="cls-18" d="M282.17,302.29c-2.77,1.9-5.66,2.73-8.42,3.75-19.31,7.14-39.3,9.48-59.69,7.3-30.93-3.3-58.04-15.52-81.4-36.03-10.45-9.18-19.3-19.72-26.58-31.56-.39-.64-1.4-1.31-.79-2.15.43-.6,1.41-.26,2.14-.24,16.92.54,33.69,2.39,50.35,5.37,27,4.84,52.84,13.17,77.49,25.19,15.48,7.54,30.06,16.59,44.16,26.43.81.57,1.62,1.15,2.75,1.95Z"/>
  <path class="cls-18" d="M215.98,252.85c-10.25-3.43-20.6-6.53-31.12-9.01-10.53-2.49-21.13-4.56-31.86-6-5.82-.83-11.66-1.44-17.51-2.03-9.93-1-19.89-1.21-29.85-1.46-1.41-.03-2.83.02-4.25-.02-.89-.02-2.06.14-2.13-1.14-.07-1.5,1.22-1.25,2.18-1.35,11.83-1.13,23.69-1.66,35.56-1.71,11.78-.05,23.55.27,35.31,1.32,5.77.51,11.56,1.03,17.3,1.75,5.48.68,10.96,1.52,16.41,2.61,5.51,1.1,11.03,2.19,16.53,3.39,7.76,1.69,15.35,4.01,22.96,6.25,6.26,1.84,12.3,4.29,18.46,6.39,17.05,6.67,33.38,14.76,48.65,24.89,2.07,1.37,4.05,2.9,6.15,4.23,1.62,1.02,1.32,1.72-.01,2.74-6.07,4.65-12.38,8.93-19.05,12.69-1.39.78-2.22.54-3.31-.33-17.33-13.74-36.29-24.78-56.48-33.74-3.94-1.75-7.96-3.33-11.94-4.99-3.96-1.62-8.05-2.87-12.01-4.49Z"/>
  <path class="cls-35" d="M113.07,280.29c8.25,8.31,17.75,15.04,27.44,21.52,3.71,2.81,7.9,4.8,11.97,7.01,4.72,2.56,9.65,4.66,14.6,6.72.7.29,1.41.57,1.91,1.13.66.75.7,1.67.35,2.58-.37.96-1.22.79-1.91.57-2.29-.71-4.25-.13-6.03,1.37-1.55,1.31-3.09,1.48-4.67,0-.76-.71-1.7-1.36-2.61-.4-1.06,1.1-.06,2.02.63,2.79,1,1.11,2.16,2.07,2.99,3.33.49.76,1.17,1.44.83,2.48-1.12.82-2.19.34-3.29-.1-10.49-4.25-20.56-9.31-30.25-15.17-5.2-3.14-9.91-6.9-14.55-10.78-9.33-7.65-18.09-15.9-25.83-25.18-12.07-14.48-21.47-30.53-28.32-48.08-.36-.92-.58-1.89-.86-2.84-.63-1.66-.03-2.21,1.7-2.18,4.74.08,9.49.19,14.21-.04,2.63-.13,3.92.94,4.91,3.2,3.44,7.86,7.81,15.21,12.51,22.38,7.05,10.75,15.59,20.27,24.27,29.67Z"/>
  <path class="cls-27" d="M399.22,151.22c-5.23,7.39-8.7,15.15-12.85,22.52-3.18,5.64-6.22,11.37-9.26,17.09-.65,1.22-1.38,1.87-2.88,1.83-3.83-.11-7.66-.11-11.49,0-1.8.05-2.27-.62-2.21-2.32.24-6.74.38-13.49.54-20.23.02-.81.27-1.65-.18-2.43-.78-.16-.99.4-1.27.92-4.03,7.36-8.08,14.71-12.07,22.09-.75,1.39-1.65,2.04-3.32,1.97-3.49-.14-7.01-.22-10.49.02-2.47.17-2.87-.82-2.8-2.99.32-9.9.51-19.81.71-29.72.05-2.4.25-4.83-.57-7.18-.46-1.29.22-1.57,1.37-1.56,4.75.02,9.49-.02,14.24-.01.87,0,2.05-.2,1.45,1.39-1.3,3.44-1.08,7.05-1.15,10.62-.09,4.47-.02,8.95-.02,14.01.67-1.04,1.15-1.7,1.55-2.41,4-7.28,8.01-14.56,11.94-21.87.68-1.26,1.45-1.8,2.92-1.76,3.75.1,7.5.13,11.24-.02,1.94-.07,2.35.64,2.33,2.45-.1,7.57-.04,15.14-.04,22.81.45.06.68-.65.97-1.17,3.37-6.11,6.74-12.22,10.07-18.35.47-.87,1.13-1.85,1.08-2.75-.18-2.97,1.49-3.13,3.74-2.97,2.05.15,4.11.03,6.47.03Z"/>
  <path class="cls-35" d="M205.12,325.77c3.3.34,6.6.68,9.9,1.01,17.86,1.8,35.57.65,53.07-3.21,19.78-4.36,38.28-11.95,55.39-22.85.61-.39,1.11-1.06,1.96-.99,1.35,1.44-.25,2.04-.93,2.56-4.35,3.35-8.58,6.87-13.24,9.81-10.94,6.91-22.33,12.95-34.49,17.4-12.93,4.74-26.23,7.95-39.94,9.66-6.72.84-13.46,1.05-20.15,1.18-7.95.15-15.95-.35-23.87-1.58-6.91-1.07-13.78-2.24-20.52-4.12-.79-.22-1.65-.34-2.18-1.1-.58-.93-.21-1.78.29-2.57,1.24-1.93,1.5-3.96,1.14-6.22-.4-2.52.23-3.07,2.7-2.52,2.04.46,3.99.49,5.75-.75,1.25-.88,2.59-.72,3.83-.3,5.82,1.97,11.84,3.02,17.84,4.22,1.15.23,2.34-.1,3.45.34Z"/>
  <path class="cls-32" d="M30.88,189.85c-2.18,2.72-4.63,2.82-7.16,2.79-4.33-.06-8.66.02-12.99-.04-7.31-.09-10.32-4.12-8.49-11.26,1.87-7.32,3.64-14.68,5.61-21.97,1.33-4.95,4.84-7.92,9.87-8.02,10.82-.21,21.64-.13,32.47-.21,1.77-.01,2.2,1.11,1.49,2.21-1.06,1.65,1.86,5.47-2.27,5.12-7.33-.61-14.64-.33-21.96-.33-2.46,0-3.77,1.25-4.35,3.6-1.71,6.94-3.49,13.86-5.28,20.78-.54,2.1.35,3.01,2.36,3.04,1.91.03,3.83-.06,5.74.01,1.71.07,2.66-.82,3.1-2.31.64-2.15,1.17-4.33,1.79-6.48.33-1.15.05-1.76-1.25-1.71-1.75.07-3.52-.09-5.23.19-1.75.29-1.86-.4-1.51-1.74.34-1.28.67-2.57,1.01-3.86.29-1.11.97-1.65,2.16-1.65,7.33.02,14.65.02,21.98,0,1.67,0,1.65.54,1.09,1.98-2.6,6.75-4.71,13.65-5.25,20.91-.1,1.34-.47,1.74-1.72,1.72-2.83-.04-5.66-.07-8.49.03-1.64.06-3-.02-2.72-2.8Z"/>
  <path class="cls-3" d="M170.49,333.32c4.91,1.67,9.99,2.6,15.08,3.55,5.05.94,10.13,1.52,15.21,2.13.49.06.97.28,1.46.29,4.23.08,8.48.47,12.67.4,12.24-.2,24.43-.98,36.48-3.67,10.33-2.3,20.38-5.28,30.19-9.23,12.56-5.05,24.26-11.63,35.28-19.45,2.5-1.77,4.93-3.64,7.3-5.57.59-.48,1.71-.84,1.27-2.04,4.49-3.39,8.9-6.85,12.93-10.81,9.23-9.08,17.14-19.19,24.05-30.11.45-.46.7-1.09,1.2-1.59,1.01.61.65,1.35.33,2.09-18.34,33.69-45.13,58.2-80.35,73.35-13.88,5.97-28.42,9.73-43.46,11.62-14.64,1.84-29.23,1.68-43.81-.36-6.01-.84-11.96-2.07-17.83-3.61-7.21-1.99-14.32-4.3-21.21-7.23-2.11-.9-4.25-1.72-6.3-2.76-14.73-6.73-28.04-15.62-40.14-26.35-.17-.15-.25-.41-.37-.63,1.77.15,2.56,1.76,3.78,2.68,11.43,8.63,23.97,15.29,37.1,20.84,2.28.96,4.38,2.78,7.14,2.46,4.14.91,8.22,1.97,11.99,3.98Z"/>
  <path class="cls-18" d="M290.44,251.07c17.67-6.19,35.78-9.89,54.36-11.37,4.07-.32,8.14-.54,12.21-.82,1.59-.11,2.01.34,1.08,1.8-7.75,12.2-16.62,23.47-27.41,33.17-.94.84-1.6.79-2.56.06-11.33-8.52-23.61-15.42-36.43-21.42-.51-.24-1.1-.43-1.26-1.42Z"/>
  <path class="cls-27" d="M405.15,161.97c-1.38,5.21-2.8,9.87-3.84,14.62-1.08,4.93-3.28,9.65-3.04,14.85.04.86-.39,1.21-1.21,1.18-.25,0-.5,0-.75,0-2.08-.04-4.88.72-6.03-.33-1.33-1.21,1.03-3.33,1.49-5.17,2.55-10.25,5.21-20.47,7.81-30.7.2-.8.5-1.68.37-2.45-.42-2.43.66-2.89,2.85-2.8,4.24.16,8.5.12,12.74.02,1.81-.04,2.74.34,3.38,2.31,2.87,8.85,5.99,17.62,9.02,26.42.24.71.4,1.45,1.39,1.86,1.3-4.9,2.76-9.72,3.82-14.62,1.07-4.94,3.27-9.65,3.04-14.84-.04-.96.48-1.1,1.24-1.1,2.08,0,4.17.01,6.25,0,1.03,0,1.34.34.88,1.35-3.31,7.16-4.36,14.97-6.5,22.47-1.46,5.11-2.7,10.29-3.97,15.46-.41,1.66-1.26,2.23-3,2.17-4.24-.13-8.5-.16-12.74,0-2,.08-2.75-.76-3.32-2.49-2.81-8.52-5.71-17.01-8.6-25.51-.26-.77-.68-1.48-1.25-2.71Z"/>
  <path class="cls-8" d="M187.97,179.35c-.9,3.96-2.53,7.78-2.34,11.95.05,1-.48,1.33-1.37,1.33-2.08,0-4.16-.01-6.25-.02-.9,0-1.24-.33-.79-1.22,3.18-6.23,3.87-13.2,5.87-19.79,1.31-4.29,2.21-8.7,3.37-13.04.43-1.63.88-3.27.68-4.92-.26-2.13.7-2.48,2.54-2.44,4.5.1,9,.12,13.49-.03,1.76-.06,2.53.63,3.05,2.17,3.11,9.21,6.27,18.41,9.42,27.6.08.22.23.42.56,1,1.38-1.69,1.37-3.66,1.83-5.36,1.85-6.82,3.52-13.69,5.25-20.54.12-.48.25-.97.31-1.47.39-3.36.39-3.39,3.97-3.34,1.48.02,3.49-.68,4.31.31.82,1-.97,2.38-1.31,3.72-.35,1.37-.74,2.72-1.11,4.09-2.8,10.54-5.34,21.15-8.21,31.67-.34,1.26-.96,1.58-2.09,1.58-4.83-.02-9.65-.01-14.48,0-1.03,0-1.61-.33-1.98-1.43-2.91-8.63-5.89-17.23-8.75-25.88-.08-.24-.13-.49-.26-.7-.29-.47-.29-1.32-.96-1.31-.85,0-.84.88-1,1.49-1.21,4.87-2.52,9.72-3.79,14.58Z"/>
  <path class="cls-9" d="M155.25,192.63c-5.41,0-10.82,0-16.24-.01-.95,0-2.27.27-1.43-1.52,3.05-6.53,4.06-13.67,5.96-20.54,1.16-4.16,2.09-8.39,3.24-12.55.48-1.72.76-3.43.6-5.17-.12-1.39.43-1.7,1.68-1.7,10.99.03,21.98.04,32.97.02,1.45,0,1.89.43,1.54,1.93-.39,1.68.09,3.92-.85,5.03-1.07,1.27-3.25-.07-4.97-.02-4.24.12-8.49.07-12.73-.07-1.81-.06-2.55.77-2.91,2.36-.42,1.86-.83,3.74-1.43,5.55-.53,1.59-.12,2.09,1.52,2.06,5.16-.11,10.32-.07,15.48-.2,1.43-.04,2.08.1,1.51,1.73-.62,1.8-.57,4.13-1.73,5.37-1.25,1.34-3.56,0-5.42.1-3.91.18-7.83.13-11.74.04-1.42-.03-2.13.41-2.44,1.81-.54,2.43-1.19,4.84-1.83,7.25-.4,1.52.67,1.45,1.58,1.44,5.49-.05,10.99.3,16.48-.18,1.52-.13,1.97-.02,1.32,1.66-2.18,5.6-2.11,5.62-8.19,5.62-4,0-7.99,0-11.99,0Z"/>
  <path class="cls-33" d="M125.11,151.17c5.25,0,10.49.06,15.74-.03,2-.04,3.04.3,2.35,2.63-.44,1.49-.02,3.57-.91,4.51-1.01,1.06-2.93-.26-4.5-.24-4.5.07-9,.08-13.49-.03-1.51-.04-2.12.65-2.43,1.89-.52,2.01-.88,4.07-1.53,6.04-.54,1.63-.05,2.09,1.54,2.07,5-.07,10,.02,14.99-.15,1.79-.06,2.53.18,1.86,2.1-.6,1.72-.62,3.94-1.76,5.09-1.07,1.08-3.22-.1-4.92-.05-4.08.12-8.16.07-12.24.02-1.29-.02-1.95.35-2.23,1.7-.48,2.36-1.13,4.69-1.8,7-.45,1.52.16,1.97,1.57,1.95,5.49-.11,10.99-.12,16.48-.34,1.56-.07,1.72.25,1.27,1.6-1.94,5.7-1.91,5.71-7.95,5.71-9.41,0-18.82-.02-28.23.02-1.65,0-2.43.06-1.45-2.09,2.76-6,3.67-12.58,5.46-18.89,1.25-4.4,2.32-8.84,3.41-13.28.34-1.37.79-2.81.65-4.17-.28-2.61.71-3.2,3.17-3.11,4.99.2,9.99.06,14.99.06Z"/>
  <path class="cls-39" d="M414.89,124.29c.35-.81.7-1.61,1.06-2.42,1.12-1.87,2.42-3.62,3.49-5.51h0c.42-.44.83-1.45,1.46-.88.85.76-.05,1.63-.44,2.4-.32.67-.65,1.33-.97,2-.85,1.3-1.03,2.78-1.63,4.75,1.66-1,2.67-1.81,3.58-2.77h0c.44-.32.94-.45,1.34-.06.49.48-.04.86-.27,1.26-.94,1.63-2.17,3.08-2.97,4.8-1.39,3.01-1.2,3.45,1.91,3.98,3.02.54,6.08.92,9.01,1.94.57.55,1.53.91,1.11,1.98-.41,1.05-1.36,1.08-2.3,1.09-1.91.01-3.83,0-5.74,0-15.98,0-31.96.1-47.94-.07-4.13-.04-8.28.37-12.41-.16-.66-.08-1.34-.11-1.93-.45-.87-.51-1.37-1.28-1.08-2.29.32-1.12,1.29-.94,2.07-.71,2.63.75,4.94.34,6.89-1.65.54-.55,1.19-1.31.69-1.95-.66-.84-1.3.13-1.88.47-2.35,1.38-4.72,1.07-6.25-.86-1.28-1.61-.95-3.95.83-5.87.28-.3.6-.57.88-.88q2.07-2.23,4.69-.64c.42.28.58.78.92,1.12.87.88,1.52.57,1.64-.55.18-1.7,1.12-1.68,2.19-.99.9.58,1.48.59,1.97-.38.28-.56.32-1.38,1.25-1.2,1.1.21,1.39,1.01,1.36,2.01,0,.17-.02.33-.03.5-.07.78-.71,1.91.21,2.22,1.07.35,1.3-.96,1.75-1.71,1.17-1.99,2.32-4,3.52-5.98.41-.68.96-1.63,1.84-1.44,1,.21.76,1.33.83,2.12.07.83-.05,1.67.11,2.48.1.52.4.68.86.3,1.15-1.21.18-2.87.9-4.16,1.8-.87,1.27-2.74,1.79-4.16.42-2.94,1.38-5.67,3.04-8.2.1,6.02-.38,11.98.08,17.94.34,1.37,1.06,2.59,1.6,3.89.18.43.33,1.13.95.91.75-.26.41-.96.25-1.49-.19-.63-.47-1.24-.57-1.9-.09-.65-.24-1.44.51-1.75.66-.27,1,.43,1.33.86.83,1.09,1.56,2.26,2.07,3.55-.96-3.55-2.71-6.73-4.45-9.91-.3-.65-.7-1.28-.64-2.01.05-.68.35-1.08,1.01-.4,2.3,2.37,4.29,4.98,6.39,7.6-1.98-8.98-4.65-17.74-8.11-26.62,2.47,1.78,5.88,7.53,8.58,13.75,2.15,4.96,3.49,10.16,5,15.36.55-3.47,1.44-6.81,2.24-10.17.63-1.73,1.18-3.49,2.35-5.55.67,2.23.14,3.86-.42,5.5-.5,3.28-1.36,6.52-.81,10.67,2.29-6.14,4.51-11.59,8.29-16.18.51-.19,1.03-.86,1.55-.35.55.52-.07,1.05-.33,1.53-2.15,4-3.76,8.22-5.17,12.54-.58,1.8-.94,3.62-1.07,5.65,1.21-.75,1.41-1.97,2-2.92Z"/>
  <path class="cls-36" d="M273.95,189.31c6.14-8.99,12.29-17.99,18.43-26.98,2.48-2.52,4.09-5.64,5.77-8.67.66-1.18,1.21-1.81,2.57-1.8,4.49.03,8.99.04,13.48,0,1.39-.01,2.14.52,2.52,1.85.93,3.19,1.4,6.49,2.06,9.72.4,1.97-.53,4.2-.49,6.36.02.79-.75,1.31-1.63,1.17-2.82-.43-5.17.52-7.47,2.1-1.73,1.19-3.84-.17-4.38-2.48-.54-2.32-.94-4.67-1.53-6.98-.57-.49-.67-1.31-1.38-1.92-1.41,1.12-2.17,2.76-3.23,4.16-1.88,2.49-3.15,5.42-5.51,7.56-1.08,1.26-.08,1.29.8,1.31,2.24.04,4.47.07,6.71,0,1.7-.06,3,.5,4.16,1.76,2.41,2.62,5.18,4.87,7.73,7.36,1.98,1.94,2.95,1.93,5.09.09.88-.76,1.63-1.66,2.51-2.4.68-.57,1.34-1.34,2.39-.68.17.47.34.93.35,1.44.14,1.48.48,2.92.87,4.35.42,1.63,1.17,3.18,1.37,4.88-.51,1.11-1.54.88-2.4.83-2.82-.17-5.63-.16-8.45-.02-2.66.14-3.21-.41-3.61-3.02-.39-2.5-1.02-4.78-2.83-6.77-1.07-1.18-2.01-1.72-3.56-1.7-4.82.08-9.65.06-14.48,0-1.57-.02-2.73.5-3.52,1.85-1.59,2.71-3.88,4.99-5,8-.3.8-.87,1.2-1.66,1.31-1.48.21-2.94.49-4.45.12-2.14-.51-2.26-.72-1.27-2.81Z"/>
  <path class="cls-39" d="M368.38,122.41c-2.8-2.29-4.17.42-5.81,1.77-1.37,1.13-1.33,3.73-.15,4.9,1.65,1.63,3.64,1.71,5.3.3.84-.71,1.62-2.45,2.97-.84,1.23,1.46.02,2.72-.98,3.64-2.13,1.97-4.6,2.89-7.53,1.73-.47-.18-1.34-.94-1.58.2-.16.74.28,1.65,1.12,1.67,2.25.05,4.39,1.22,6.79.25,2.04-.82,4.24.34,6.39.34,16.72-.02,33.45,0,50.17,0,1.33,0,2.66.02,3.99,0,2.44-.05,2.58-.33,1.39-2.55,3.48,1.67,7.44,1.46,11.15,2.93-1,.82-2.09.49-3.08.49-112.55,0-225.1-.01-337.65-.02-11.83,0-23.66.01-35.49-.01-1.2,0-3.14.52-1.96-1.95,1,1.4,2.49,1.11,3.88,1.11,42.13,0,84.27,0,126.4,0,47.21,0,94.43,0,141.64-.02,3.12,0,6.24-.23,9.36-.33,1.4-.05,2.35-.57,3.27-1.78,1.97-2.61,4.77-4.54,8.93-2.64.54.25,1.15.49,1.64.04.57-.52,0-1.1-.14-1.6-.6-1.97-.7-3.87.11-5.83.77-1.87-.6-3.12-1.87-3.85-1.66-.96-2.65-2.79-4.62-3.29-.52-.13-.61-.74-.06-1.17.16-.26.33-.25.51-.02,2.19,1.77,4.38,3.53,6.71,5.42,1.59-3.98-2.3-5.89-3.12-9.29,3.31,2.47,5.52,5.46,7.96,8.43-1.67-8.98-4.6-17.58-7.64-26.19,3.84,4.29,6.6,9.2,8.6,14.57,1.35,3.62,2.33,7.35,3.51,11.03.27.85.46,1.75-.12,2.59Z"/>
  <path class="cls-32" d="M262.69,240.17c18.03-5.47,35.99-8.56,54.32-9.82,14.16-.98,28.28-.61,42.4.44,1.15.09,3.19-.3,3.17,1.04-.02,1.55-2.01.91-3.13.92-18.37.06-36.53,2.09-54.42,6.25-8.09,1.88-16.08,4.15-23.88,7.04-1.17.44-2.32.73-3.61.23-4.48-1.75-9-3.42-13.49-5.14-.35-.14-.64-.45-1.35-.97Z"/>
  <path class="cls-2" d="M106,38.38c-.33.33-.67.67-1,1-.79,1.35-2.25,2.14-2.96,3.55-10.43,12.27-19.35,25.53-26.15,40.16-1.82,3.91-3.52,7.87-5.28,11.81-1.25,2.04-1.65,4.44-2.64,6.59-.36.77-.7,1.3-1.62,1.08-1.67-.39-1.98.71-2.12,1.96-.11.98.03,1.99-.22,2.96-.25.98-.74,1.65-1.93,1.4-2.41-.5-4.67-4.12-4.1-6.61,4.18-10.87,9.89-20.93,16.39-30.55,6.99-10.34,14.95-19.88,24.17-28.33,1.79-1.71,3.83-3.11,5.6-4.85.45-.44,1.08-1.85,1.85-.18Z"/>
  <path class="cls-13" d="M57.98,102.29c-.4,3.06,2.05,4.32,3.84,5.93.8.71,1.59.43,1.66-.79.06-1-.12-2.02.06-2.99.29-1.58.02-4.03,3-2.4.88.48.74-.44,1.02-.89,1.24-1.98,1.13-4.61,3.05-6.25-1.56,4.97-3.14,9.93-4.66,14.91-2.48,8.12-3.96,16.46-5.01,24.87-.26,2.06-1.05,2.63-3,2.53-2.82-.15-5.65-.06-8.48-.02-1.22.02-1.97-.29-1.68-1.7,2.34-11.4,5.42-22.57,10.2-33.22Z"/>
  <path class="cls-36" d="M236.91,181.67c.63-4.45,2.22-8.66,3.14-13.04,1.14-5.42,3.51-10.6,3.35-16.28-.03-.9.38-1.17,1.17-1.17,5.16,0,10.32-.02,15.47-.01.66,0,1.53.03.94,1.1-2.69,4.88-2.98,10.51-4.94,15.61-1.21,2.9-1.79,5.99-2.57,9.01-.56,2.16-1.26,4.3-1.6,6.52-.34,2.22-.27,2.42,2.05,2.43,5.16.03,10.32,0,15.48.02,3.05.01,3.19.25,2.14,3.16-1.12,3.1-1.13,2.94-4.54,3.13-9.65.54-19.29-.15-28.93-.07-.67,0-1.33.03-2-.06-1.56-.21-2.18-.68-1.32-2.45,1.21-2.46,1.73-5.18,2.14-7.9Z"/>
  <path class="cls-35" d="M170.49,333.32c-3.71-1.04-7.43-2.07-11.13-3.16-.34-.1-.58-.54-.87-.82-1.02-1.8-2.21-3.41-3.8-4.83-1.11-.99-3.05-2.4-1.16-4.34.98-1.01,2.19-1.16,3.21.15,1.32,1.68,2.6,1.97,4.34.31,1.59-1.52,3.58-2.38,5.95-1.57.56.19,1.46,1.02,1.86-.08.3-.84.26-1.86-.8-2.36-1.91-.91-3.8-1.9-5.76-2.7-7.26-3-14.1-6.82-20.86-10.79-.51-.3-1.02-.6-.98-1.31,7.51,4.18,15.01,8.39,22.92,11.8,13.02,5.62,26.55,9.44,40.51,11.82.4.07.79.22,1.19.33-4.54.46-8.82-.99-13.15-1.93-3-.65-6.07-1.13-8.91-2.43-.62-.28-1.51-.25-2.13.3-2.26,2.01-4.81,1.97-7.45,1.03-1.14-.41-1.76-.04-1.43,1.05.97,3.22.33,6.02-1.73,8.6-.13.16.1.61.17.93Z"/>
  <path class="cls-19" d="M113.07,280.29c-4.44-3.42-7.97-7.75-11.63-11.91-5.7-6.48-10.79-13.46-15.39-20.77-3.92-6.23-7.64-12.6-10.49-19.41-.83-1.98-1.92-2.98-4.26-2.88-4.57.19-9.16.11-13.74.02-1.48-.03-2.22.37-2.08,1.92-1.22-1.6-.85-2.3,1.19-2.29,7.91.04,15.82.04,23.74.02,1.12,0,1.86.27,2.25,1.47,6.43,19.78,16.57,37.45,30.17,53.16.15.17.17.45.26.67Z"/>
  <path class="cls-36" d="M322.39,180.86c-1.77.41-2.59,2-3.76,3.11-3.1,2.94-3.79,2.96-6.75.06-2.77-2.71-5.61-5.33-8.36-8.06-.65-.64-1.33-.58-2.05-.58-2.66-.02-5.32.01-7.97-.02-.61,0-1.58.32-1.72-.5-.14-.81-.05-1.89,1.25-2,.58.74,1.22,1.29,2.27,1.28,2.49-.03,4.98-.02,7.47,0,1.5,0,1.83-.76,1.57-2.09-.39-1.95-.94-3.87-1.26-5.84-.18-1.13-.56-2.29.29-3.34.73.23,1.21.78,1.06,1.48-.47,2.32,1.08,4.25,1.12,6.5.04,1.85,2.31,2.53,3.8,1.34,2.15-1.71,4.49-2.7,7.29-1.79,1.16.37,1.47-.47,1.23-1.19-.62-1.86-.25-3.46.46-5.23.56-1.4-.66-2.83-.9-4.3-1.49-9.1-.28-7.15-8.24-7.34-2.74-.06-5.48.03-8.22-.03-1.1-.02-1.71.26-2.29,1.35-1.29,2.4-2.85,4.66-4.39,6.92-.47.7-.74,1.76-1.92,1.72,1.08-2.33,2.6-4.39,4.14-6.4,1.3-1.7,1.5-3-.45-4.18.4-.78,1.05-.54,1.58-.54,5.63-.02,11.27.03,16.9-.04,1.64-.02,2.35.53,2.6,2.19.47,3.02,1.19,6,1.81,9,1.15,5.56,2.05,11.16,3.63,16.63.18.61.31,1.3-.21,1.88Z"/>
  <path class="cls-13" d="M247.1,96.32c-5.01-.47-10.05-.35-14.78-2.28-.99-.41-2.22-.74-2.08-2.09.12-1.15,1.27-1.4,2.21-1.7.71-.23,1.43-.54,2.16-.57,1.97-.1,3.18-.56,3.14-3.02-.03-1.72,1.51-2.75,3.27-2.8,2.91-.09,5.83-.18,8.73.02,2.32.16,3.53,1.78,3.53,4.05,0,1.58.58,2.2,2.12,2.41,1.21.17,2.42.63,3.53,1.15.69.33,1.67.71,1.59,1.72-.09,1.05-1,1.41-1.89,1.72-3.77,1.3-7.71,1.09-11.54,1.39Z"/>
  <path class="cls-40" d="M234.36,208.14c-1.35,2.66-2.67,5.33-4.06,7.96-.62,1.17-1.23,2.29-2.95,2.21-1.69-.08-2.23-1.17-2.83-2.4-1.13-2.31-2.32-4.59-3.46-6.9-.23-.46-.47-1.02-1.02-.92-.66.11-.49.77-.48,1.24.04,2.16,0,4.33.22,6.48.17,1.62-.39,2.35-1.95,2.48-1.5.12-2.38-.32-2.35-2.05.07-3.41.02-6.83.03-10.24,0-.58-.07-1.18.36-1.66,1.13-1.26,7.34-.39,8.1,1.16.87,1.79,1.7,3.59,2.52,5.41.2.44.21,1.15.77,1.15.61,0,.93-.61,1.19-1.15.6-1.27,1.22-2.53,1.81-3.8.51-1.11.62-2.83,1.88-3.04,2.1-.33,4.31-.17,6.46-.02.92.06.89,1.06.9,1.82,0,3.41-.05,6.83.02,10.24.03,1.63-.63,2.21-2.22,2.21-1.54,0-2.33-.46-2.28-2.14.08-2.63.02-5.26.02-7.89-.22-.05-.44-.09-.66-.14Z"/>
  <path class="cls-40" d="M276.51,208.43c0,2.69-.04,5.16.01,7.64.03,1.37-.31,2.24-1.92,2.24-1.56,0-2.61-.46-2.61-2.23,0-3.41,0-6.83,0-10.24,0-.66-.02-1.34.67-1.75,1.75-1.05,7.17.12,8.36,1.85,1.85,2.68,3.65,5.4,6.41,7.68,0-2.53.01-5.07,0-7.6,0-1.12-.13-2.21,1.57-2.16,1.44.05,2.83.16,2.87,1.97.09,3.49.03,6.99.02,10.49,0,.71-.28,1.29-.89,1.68-1.81,1.15-6.81.08-8.08-1.72-1.48-2.11-2.96-4.21-4.43-6.33-.42-.61-.73-1.3-2-1.51Z"/>
  <path class="cls-40" d="M380.85,207.74c0,3.12-.07,5.65.02,8.18.06,1.67-.46,2.42-2.26,2.4-1.76-.03-2.31-.75-2.27-2.43.09-3.32.07-6.65.01-9.98-.03-1.46.49-1.89,1.99-2.1,4.02-.55,6.83.76,8.69,4.42,1.04,2.05,2.46,3.88,4.48,5.89,0-2.89-.01-5.31,0-7.74.02-2.32.81-2.92,3.08-2.49.89.17,1.33.63,1.34,1.5.02,3.74.01,7.49.01,11.23,0,.62-.18,1.14-.76,1.47-1.8,1.04-6.72-.1-8.13-1.92-2-2.59-3.53-5.53-6.22-8.43Z"/>
  <path class="cls-40" d="M59.62,211.1c0,1.67-.07,3.34.02,5,.07,1.37-.51,2-1.82,2.14-3.27.33-6.25.23-8.02-3.34-.99-1.99-2.52-3.7-3.81-5.53-.27-.39-.45-1.01-1.09-.76-.59.23-.4.85-.4,1.32-.01,2-.05,4,.04,6,.08,1.7-.54,2.41-2.3,2.39-1.63-.01-2.21-.64-2.18-2.24.07-3.41.05-6.83.02-10.25-.02-1.36.58-1.7,1.89-2,4.77-1.1,7.14,1.77,9.31,5.19.84,1.33,1.74,2.63,2.66,3.91.27.38.57.92,1.18.62.45-.22.35-.72.33-1.12-.09-1.99-.2-3.98-.33-5.97-.13-1.97.84-2.66,2.73-2.6,1.26.04,1.83.44,1.79,1.74-.06,1.83-.01,3.66-.01,5.5Z"/>
  <path class="cls-7" d="M236.91,181.67c.37,2.93-.66,5.6-1.81,8.15-.67,1.49-.14,1.56,1,1.53,8.72-.28,17.42.89,26.14.47,2.28-.11,4.53-.24,6.82-.21,2.16.03,2.15-2.68,2.52-4.27.4-1.75-1.39-.91-2.11-.92-5.24-.09-10.48-.03-15.72-.05-2.58,0-2.9-.4-2.28-2.97,1.16-4.84,2.37-9.67,3.57-14.5.13-.52.5-.85,1.01-1.01-1.24,5.16-2.37,10.34-3.77,15.45-.57,2.06.21,2.27,1.86,2.23,5.99-.14,11.99.33,17.95-.47,1.17-.16,1.21.26.97,1.24-.36,1.49-1.54,2.75-1.35,4.43,1.26.15,1.39-1.2,2.25-1.46-.93,3.24,2.01,2.31,3.09,2.36,1.9.08,3.77-.28,4.8-2.77,1.08-2.62,3.11-4.86,4.79-7.21.7-.99,1.7-1.39,3-1.37,4.65.08,9.31.03,13.96.03,3.29,0,6.2,2.07,7.17,5.2.34,1.1.71,2.28.64,3.39-.17,2.46,1.13,3.23,3.17,2.87,2.73-.48,5.4-.35,8.11,0,.78.1,1.92.5,2.26-.84.13-.24.31-.28.54-.14.86,1.18.97,1.87-.9,1.85-4.99-.07-9.99-.06-14.99-.02-1.4.01-2.04-.38-1.62-1.89.17-.63.18-1.32.16-1.98-.19-6.99-.55-7.33-7.39-7.29-3.75.03-7.49.06-11.24,0-1.4-.02-2.33.4-3.05,1.65-1.65,2.85-4.19,5.18-4.92,8.57-.25,1.15-1.21.94-2.02.94-14.9,0-29.8,0-44.7.02-1.56,0-2.02-.35-1.1-1.85,1.73-2.8,1.78-6.21,3.18-9.14Z"/>
  <path class="cls-40" d="M335.87,208.22c-.58,2.65-.24,5.03-.27,7.39-.02,1.5.12,2.82-2.1,2.72-1.98-.09-2.25-.98-2.16-2.71.16-3.07.11-6.15.03-9.23-.05-1.77.55-2.38,2.41-2.58,3.64-.41,6.14.68,7.91,3.99,1.19,2.21,2.6,4.36,4.83,6.66,0-3.09.05-5.61-.02-8.14-.05-1.58.29-2.51,2.17-2.48,1.71.02,2.39.61,2.34,2.35-.08,3.32-.05,6.65,0,9.98.02,1.45-.59,1.89-2.03,2.17-4.33.85-6.8-1.37-8.84-4.72-1.14-1.86-2.25-3.8-4.25-5.4Z"/>
  <path class="cls-40" d="M320.87,218.27c-1.91,0-3.83-.05-5.74.02-1.47.05-2.13-.5-2.11-2.03.05-3.41.06-6.83,0-10.24-.03-1.64.65-2.18,2.24-2.15,3.83.07,7.66.03,11.49,0,1.22,0,2.14.19,2.15,1.72.01,1.49-.82,1.81-2.08,1.79-2.16-.03-4.33-.06-6.49.03-.98.04-2.67-.53-2.67.94,0,1.8,1.79.88,2.76.95,1.99.15,3.99.07,5.99.04,1.11-.02,1.7.33,1.69,1.56,0,1.29-.72,1.5-1.76,1.49-2.33-.02-4.66,0-6.99,0-.88,0-1.8.1-1.8,1.22,0,1.15.97,1.17,1.83,1.17,2.58,0,5.16.02,7.74,0,1.18-.01,1.91.29,1.85,1.68-.05,1.25-.58,1.82-1.83,1.81-2.08-.02-4.16,0-6.24,0Z"/>
  <path class="cls-40" d="M112.43,203.88c1.58,0,3.16,0,4.74,0,1.13,0,2.18.36,2.95,1.15,1.08,1.11,1.56,2.71.41,3.77-.98.89-2.6.94-3.82-.22-1.27-1.2-6.75-1.79-7.9-.71-1.64,1.53-.95,3.6-.72,5.42.17,1.37,1.49,1.64,2.75,1.53,2.35-.22,4.9.75,6.85-1.78.47-.61,2.78-1.01,3.71.55.78,1.3-.28,3.54-1.85,4.11-1.64.59-3.37.86-5.14.74-2.64-.18-5.3.13-7.94-.42-2-.41-2.87-1.59-2.95-3.43-.09-2.24-.09-4.49.01-6.73.11-2.49,1.41-3.72,3.93-3.94.25-.02.5-.03.75-.03,1.41,0,2.83,0,4.24,0,0,0,0,0,0,0Z"/>
  <path class="cls-40" d="M407.89,203.86c1.5,0,3,.02,4.49,0,.95-.02,1.83.23,2.64.65,1.31.69,2.15,3.26,1.26,4.12-1.16,1.12-2.72,1.04-3.82,0-2.41-2.27-5.24-1.31-7.78-.95-2.03.29-1.7,2.57-1.6,4.21.09,1.52.69,2.97,2.47,2.85,2.49-.18,5.25,1.15,7.37-1.61.63-.82,2.76-.92,3.6.24.86,1.17.55,2.67-.66,3.81-.66.62-1.49.9-2.25.96-3.97.3-7.94.57-11.9-.23-1.9-.39-2.67-1.6-2.73-3.34-.08-2.33-.08-4.66,0-6.99.08-2.29,1.5-3.47,3.67-3.64,1.74-.14,3.49-.03,5.24-.03,0-.02,0-.04,0-.05Z"/>
  <path class="cls-25" d="M263.97,251.84c-3.15-.15-5.84-1.78-8.71-2.78-7.99-2.8-16.1-5.14-24.26-7.39-7.45-2.05-15-3.67-22.56-5.15-8.96-1.76-18.02-3.01-27.1-3.97-15.58-1.65-31.21-2.3-46.88-2.06-11.06.17-22.13.53-33.13,1.87-.59.07-1.6-.26-1.62.67-.02,1.11,1.05.85,1.73.84,9.58-.13,19.15.42,28.7,1.08,6.96.48,13.89,1.38,20.83,2.15.69.08,1.55-.04,2.03.73-3.68.2-7.25-.73-10.89-1.01-5.22-.41-10.42-1.19-15.64-1.41-8.32-.35-16.64-.86-24.97-.61-1.46.04-2.66-.36-2.76-1.82-.11-1.69,1.43-1.49,2.56-1.58,12.69-1.04,25.41-1.81,38.14-1.8,10.97,0,21.95.48,32.91,1.47,8.12.73,16.22,1.58,24.27,2.81,11.83,1.8,23.54,4.18,35.12,7.26,10.19,2.71,20.21,5.9,30.08,9.57.77.29,1.63.39,2.15,1.14Z"/>
  <path class="cls-40" d="M310.96,205.85c.08,1.2-.34,1.95-1.67,1.92-.83-.01-1.67.06-2.49-.02-1.41-.12-1.95.47-1.91,1.86.06,2.07-.02,4.15.01,6.23.03,1.83-.88,2.45-2.62,2.49-1.83.04-2.3-.91-2.28-2.47.02-1.66-.17-3.34.04-4.98.32-2.59-.69-3.45-3.19-3.14-1.48.18-3.13.34-2.96-2.09.08-1.22.44-1.8,1.76-1.79,4.48.05,8.97.03,13.45,0,1.41-.01,1.96.66,1.86,1.99Z"/>
  <path class="cls-40" d="M7.68,218.31q-7.15,0-7.15-7.23c0-1.67.08-3.34-.02-5-.11-1.81.76-2.23,2.4-2.28,1.82-.06,2.33.67,2.24,2.35-.1,1.74.09,3.51-.05,5.24-.18,2.22.5,3.27,2.91,3.02,1.73-.18,3.49-.03,5.24-.03,1.26,0,2.11.5,2.15,1.87.04,1.51-.84,2.06-2.22,2.05-1.83,0-3.67,0-5.5,0Z"/>
  <path class="cls-8" d="M265.38,25.59c-7.73-2.68-15.77-4.06-23.82-5.22-9.58-1.38-19.24-1.61-28.91-1.21-20.16.84-39.47,5.39-58,13.34-.53.23-1,.62-1.63.45,2.36-2.35,5.65-2.77,8.51-4.05,5.09-2.28,10.48-3.82,15.84-5.23,4.5-1.19,9.13-2.07,13.73-2.97,7.48-1.46,15.07-1.67,22.58-2.62,4.56-.58,9.29-.62,13.92.23,1.96.36,3.93.53,5.94.57,7.37.14,14.55,1.7,21.73,3.17,2.97.61,5.94,1.22,8.8,2.29.67.25,1.26.43,1.31,1.25Z"/>
  <path class="cls-6" d="M187.97,179.35c-.02-2.96,1.31-5.62,1.83-8.46.43-2.35,1.17-4.65,1.78-6.97.19-.73.33-1.67,1.18-1.72.87-.05.73.95.93,1.54,3.05,8.87,6.14,17.74,9.11,26.64.48,1.44,1.1,2.02,2.62,1.99,4.41-.08,8.83-.08,13.24,0,1.54.03,2.07-.53,2.45-2.05,2.42-9.75,4.99-19.47,7.54-29.19.16-.62.22-1.33.82-1.77.27,2.82-1.04,5.35-1.67,7.97-1.89,7.89-4.15,15.69-6.15,23.55-.38,1.49-.97,2.08-2.5,2.06-4.74-.07-9.49-.03-14.23-.02-1.26,0-2.05-.22-2.55-1.71-2.91-8.79-5.98-17.53-9-26.29-.13-.38-.29-.75-.69-1.8-1.01,3.73-1.75,6.88-2.73,9.96-.66,2.09-.49,4.45-1.98,6.28Z"/>
  <path class="cls-40" d="M269.01,211.13c0,1.57-.09,3.15.02,4.72.13,1.84-.61,2.49-2.44,2.48-1.86-.01-2.19-.95-2.16-2.51.07-3.23.09-6.46,0-9.69-.05-1.78.72-2.24,2.38-2.29,1.8-.06,2.34.65,2.23,2.33-.1,1.65-.02,3.31-.02,4.97h-.01Z"/>
  <path class="cls-20" d="M368.38,122.41c-.36-3.74-1.74-7.22-2.83-10.76-.29-.95-.76-1.82-.56-2.85,2.11,3.74,3.02,7.87,3.94,11.99.15.69,0,1.82.95,1.75.97-.07.55-1.21.65-1.87.67-4.63,1.96-9.05,4.4-13.17.02,4.63-2.2,9.07-1.17,13.83,2.36-4.23,3.86-8.91,7.12-12.58.09.07.19.14.28.21.62,1.53-.6,2.48-1.18,3.6-.73,1.39-1.65,2.68-2.36,4.09-.52,1.04-.16,1.71.58,2.37.07.48.03.95-.17,1.4l.02-.04c-.76.2.21,1.67-1.08,1.47,0-.67.01-1.39-.81-1.59-.92-.22-.63.75-.97,1.11-.67.73-1.05,2.03-2.37.64-.97-1.02-1.73-.87-1.81.71-.04.69-.21,1.42-1.04,1.42-1.08,0-1.59-.69-1.58-1.76Z"/>
  <path class="cls-30" d="M114.6,87.51c2.2,3.84,4.41,7.68,6.59,11.53.14.25.16.69.03.95-.37.79-5.08.87-5.27.06-.92-4.08-1.56-8.2-1.36-12.54Z"/>
  <path class="cls-6" d="M310.46,118.87c-.89.82-.99.88-1.39.2-.83-1.41-1.7-2.76-1.6-4.6.2-3.65.53-7.29.87-10.95-1.8,4.3-3.41,8.65-4.04,13.31-.15,1.14-.57,2.25-.88,3.36-.16.59-.44,1.14-1.16,1.06-.81-.09-.73-.8-.75-1.35-.06-1.75-.09-3.49-.11-5.24,0-.66-.01-1.24-.93-.78-.58-1.66.7-2.78,1.17-4.16.93.19.93,1.09,1.33,1.66,0,2.68-.3,5.34-.26,7.7.52-2.34.61-5.02.23-7.72,1.22.27,1.95.21,2.29-1.41.5-2.41,1.5-4.72,2.29-7.07.29-.87.64-1.7,2.01-2.41-.3,2.85-.56,5.38-.82,7.91-.2,1.89-.42,3.78-.62,5.67-.22,2.1.61,3.69,2.36,4.83Z"/>
  <path class="cls-30" d="M128.61,97.64c-3.15-6.63-2.57-12.19,2.18-17.93-.75,6.18-1.42,11.68-2.18,17.93Z"/>
  <path class="cls-6" d="M352.47,115.85c-.17,0-.34.01-.51.02.02-1.47.03-2.93.05-4.4.24-1.55.24-3.14.69-4.35.17.81-.51,1.54-1.18,2.28-.8,2.69-1.84,5.29-2.16,8.13-.19,1.69-1.24,1.81-2.4.63-2.02-2.04-.9-4.53-.89-6.84,0-.76.69-1.47.4-2.43-1.57.58-2.08,2.33-3.5,2.99.51-2.1,2.48-2.99,3.72-4.48.32-.39.87-.66,1.33-.32.56.41.08.95-.14,1.31-1.42,2.37-.96,4.98-1.03,7.53-.02.88.2,1.64,1.47,2.18.59-5.23,2.66-9.85,5.13-14.36.74,2.06-.16,3.98-.23,5.94-.07,2.06-.48,4.1-.74,6.16Z"/>
  <path class="cls-30" d="M122.84,106.94c1.45.12,2.13,2.08,3.05,3.51.88,1.36-.76,1.74-1.57,2.29-3.75,2.57-3.76,2.56-4.34-2.11-.37-3-.02-3.62,2.86-3.7Z"/>
  <path class="cls-38" d="M414.89,124.29c.04,1.21-.56,2.22-1.06,3.24-.24.48-.62,1.18-1.27.95-.78-.28-.68-1.1-.49-1.73,1.15-3.71,2.23-7.45,3.56-11.09.87-2.38,2.01-4.68,3.24-6.89,1.15-2.07-.71-.57-.97-.93,1.43-2.51,3.34-4.56,5.88-6.09-4.75,7.32-8.5,15.04-10.41,23.84.63-.54,1.08-.92,1.53-1.3Z"/>
  <path class="cls-30" d="M161.05,94.31c-1.23,3.32-2.43,6.65-3.73,9.94-.29.73-.54,2.29-1.44,1.79-1.09-.61-2.48-2.19-1.7-3.47,1.87-3.06,3.94-6.04,6.88-8.26Z"/>
  <path class="cls-6" d="M315.43,114.95c-1.39-.76-1.99-2.42-3.76-3.13,1.46,3.71,4.66,6.61,4.19,10.81-1.99-1.59-3.4-3.45-3.57-6.03-1.28.06-1.16,1.32-1.78,1.87-.03-.33-.2-.75-.06-.97,1.54-2.37,1.55-4.5-.8-6.4-.35-.28-.29-.94.05-1.38.24-.31.64-.37.88-.14,1.74,1.69,4.11,2.81,4.85,5.39Z"/>
  <path class="cls-40" d="M96.5,209.42c-2.15-.09-4.31-.05-6.46-.1-.72-.02-1.67.09-1.78-.91-.12-1.13.95-1.39,1.69-1.39,2.24-.01,4.56-.82,6.65.95,1.04.88,2.55.31,3.86.28,0,0,0,0,0,0,0-.78,0-1.56.01-2.34-1.42-1.63-3.22-2.18-5.36-2.08-2.49.12-5-.05-7.49.09-2.55.15-3.71,1.75-3.64,4.65.07,2.75.97,3.63,3.79,3.79,2.4.13,4.8.33,7.21.49.77.05,1.61.07,1.52,1.16-.07.92-.85.95-1.51.89-2.63-.24-5.44.86-7.84-1.29-.65-.58-2.04-.55-2.79.23-1.08,1.14-.07,2.33.22,3.49,0,0,0,0,0,0,4.89,1.77,9.86,1.25,14.83.47.51-.93,1.34-1.69,1.54-2.8.64-3.42-.92-5.42-4.47-5.58Z"/>
  <path class="cls-11" d="M376.95,121.87c.63-.29.34-1.26,1.08-1.47.28,1.27-.6,2.38-.58,3.63.2.05.43.15.46.11,2.21-3.48,4.44-6.94,6.56-10.47.32-.54.26-1.45,1.05-1.49,1.08-.05.93.91,1.02,1.63.03.2.27.37.41.55.43.53.85,1.1,1.33.04.3-.65.26-1.4.69-2h0c.11-.22.26-.25.44-.07-.25,1.56,1.14,3.95-2.02,4.05-1.25-.14-1.35.59-1.35,1.59,0,1.1.26,2.05.91,2.92-1.08,1.47-1.79.99-1.96-.51-.17-1.51-.04-3.05-.04-5.32-2.57,2.91-3.88,5.7-5.42,8.33-.28.49-.41,1.06-.86,1.46-.46.4-.96.69-1.57.46-.85-.32-.33-.95-.29-1.46.05-.66.09-1.32.14-1.97Z"/>
  <path class="cls-30" d="M144.64,93.16c-.18,2.75-1,5.08-1.59,7.45-.04.15-.17.4-.26.4-1.89.03-2.5-1.77-3.73-2.68-.49-.37-1.35-1-.21-1.73,1.79-1.14,3.39-2.59,5.79-3.44Z"/>
  <path class="cls-6" d="M389.42,112.32c-.15.02-.3.04-.44.08-.09-3.58,1.87-6.64,2.59-10.01.12-.54.81-.96,1.39-.81.78.21.52.97.37,1.47-.57,1.92-.11,3.97-.82,5.88-.77,2.06,1.26,3.03,1.87,4.56q-.58.39.15,2.35c-.75.46-1.12-.51-1.76-.47-.64,2.3.58,4.8-.81,7-1-2.98-.64-6.05-.35-9.05.29-3.01.02-6.06.78-9.03-1.7,2.44-2.24,5.27-2.96,8.04Z"/>
  <path class="cls-11" d="M378.01,120.44c-.03-.53-.06-1.07-.08-1.6-.46-2.95,1.8-4.94,2.64-7.44.22-.66.67-1.3.99-1.96.3-.61-.39-.16-.48-.38-.08-.09-.15-.19-.21-.3,1.5-2.6,3.48-4.77,5.78-6.65.54.46.29.79.05,1.13-3.49,5.08-6.14,10.57-8.12,16.4-.1.3-.37.54-.56.8Z"/>
  <path class="cls-3" d="M363.94,259.32v-1.67c-.71.27-.77,1.17-1.53,1.16,1.83-3.5,3.66-7.01,5.49-10.51.93-1.22,1.32-2.75,2.31-4.21.78,1.28.61,2.23-.34,3.11-1.64,4.2-3.39,8.35-5.92,12.12Z"/>
  <path class="cls-14" d="M184.91,107.87c-1.08-1.73.45-3.48-.03-5.23-.27-.99.51-3.02-1.9-1.59-.8.47-1.07-.54-1.22-1.13-.31-1.19-.52-2.4-.77-3.6.78-.38.98.51,1.51.56.43.77.86,1.55,1.35,2.43,1.2-.83.08-3.04,1.88-3.12,2.08-.09,4.27-.68,6.21.67-2.09.35-4.95-.99-6.09.61-1.03,1.44-.4,4.12-.36,6.26.02,1.43-.29,2.77-.57,4.14Z"/>
  <path class="cls-23" d="M325.49,190.82c-.18.05-.36.09-.54.14-.96-1.2-.93-2.76-1.48-4.1-.33-1.54-.47-3.11-.96-4.62-.04-.46-.08-.92-.12-1.38-1.07-5.19-2.13-10.39-3.24-15.57-.21-.98-.45-1.94-.19-2.94,1.36,1.76,1.05,3.97,1.52,5.96,1.79,7.48,3.35,15,5,22.51Z"/>
  <path class="cls-3" d="M369.86,247.2c.07-.79.88-1.42.51-2.33-1.24.85-1.11,2.69-2.47,3.43,2.05-4.89,4.27-9.71,6.87-14.71.23.97.13,1.6-.12,2.27-1.34,3.61-2.65,7.23-4.01,10.83-.09.24-.52.34-.79.51Z"/>
  <path class="cls-30" d="M176.42,87.5c-.2,1.49-1.04,2.49-2.54,2.49-1.46,0-2.51-.88-2.53-2.45-.03-1.68,1.02-2.66,2.6-2.64,1.5.02,2.27,1.11,2.47,2.6Z"/>
  <path class="cls-6" d="M150.98,330.33c4.7,1.25,8.92,3.73,13.52,5.26,4.15,1.38,8.24,2.95,12.53,3.87.55.12,1.14.29,1.45.86-3.63-.1-6.89-1.67-10.26-2.71-5.7-1.75-11.18-4.15-16.64-6.55-.26-.11-.41-.48-.6-.73Z"/>
  <path class="cls-30" d="M141.7,108.6c-1.35,4.83-4.38,7.61-7.66,7.05,2.23-2.69,4.9-4.6,7.66-7.05Z"/>
  <path class="cls-30" d="M168.99,121.64c1.49-2.64,3.77-3.67,5.37-5.38.45-.48,1.22-.42,1.41.27.28.99.71,2.21-.65,2.79-1.86.79-3.77,1.44-6.12,2.33Z"/>
  <path class="cls-30" d="M152.99,117.89c1.47.56,2.94,1.1,4.4,1.68.55.22,1.5,0,1.47.97-.02.72-.75,1.04-1.22,1.49-.66.63-1.21.29-1.76-.13-1.12-.85-2.24-1.7-3.36-2.56-.55-.31-.99-.71-.59-1.37.24-.4.67-.41,1.05-.09Z"/>
  <path class="cls-29" d="M421.46,131.85c-3.28.2-3.78-.6-2.43-3.65.84-1.9,2-3.59,3.19-5.26,1.02-1.44-.29-.89-.78-1.08,1.18-1.3,2.57-2.16,4.44-2.33-.04,1.38-1.14,1.73-1.79,2.4-1.69,1.76-3.02,3.74-4.09,5.9-1.42,2.88-1.39,2.9,1.45,4.01Z"/>
  <path class="cls-22" d="M334.49,114.41c.54-2.9,2.26-5.31,3.53-8.11-1.22.13-1.19,1.4-2.02,1.65-.28-.19-.32-.41-.1-.68.84-1.14,1.69-2.28,2.53-3.42.41-.53.81-1.06,1.32-1.49.36-.31.75-.84,1.24-.35.38.37.3.91-.11,1.32-2.57,3.36-4.14,7.26-5.99,11-.1.24-.24.27-.42.07Z"/>
  <path class="cls-30" d="M176.92,106.3c-1.05,1.29-2.07,1.35-3.2.04-.94-1.07-2.32-1.72-3.23-3.15,1.58-.6,2.72.5,3.98.7.7.42,1.6.14,2.26.67.63.5,1.46,1.02.18,1.73Z"/>
  <path class="cls-28" d="M105.77,107.73c-1.39,2.15-2.38,3.68-3.36,5.2-.8,1.23-1.66.78-2.48.06-.96-.84-.41-1.41.39-1.92,1.56-1.02,2.85-2.48,5.46-3.34Z"/>
  <path class="cls-24" d="M335.91,107.27c.03.22.06.45.1.68-.8,1.33-1.94,2.57-2.32,4.01-.69,2.58-2.81,2.75-4.71,3.34-.76.24-1-.38-.99-1.03,0-.92.12-1.81,1-2.38.34.57-.26,1.31.25,1.77,3.81-.52,4.46-4.26,6.69-6.38Z"/>
  <path class="cls-2" d="M106,38.38c-1.09-.99-1.39.33-1.91.73-1.86,1.42-3.34,3.33-5.54,4.3,3.07-3.63,6.96-6.36,10.45-9.53.37-.24.74-.29,1.04.09.23.29.15.58-.11.82-1.49,1-2.1,2.96-3.93,3.59Z"/>
  <path class="cls-30" d="M164.21,105.37c1.56,1.79,1.68,3.76,2.4,5.48.29.68.84,1.83-.49,1.92-.9.06-2.31,0-2.23-1.64.09-1.79-.2-3.6.32-5.75Z"/>
  <path class="cls-30" d="M173.25,93.37c1.9.88,2.67,2.55,3.74,3.97.43.57,1.55,1.38.38,1.98-.94.48-2.36.63-2.81-.99-.46-1.65-.87-3.31-1.3-4.97Z"/>
  <path class="cls-6" d="M410.42,113.36c-.55-1.53.9-2.84.47-4.49-1.34,1.3-1.11,3.34-2.41,4.54.13-2.8,1.69-5.06,2.83-7.48.17-.37.6-.56,1.06-.43.4.12.45.45.34.78-.8,2.35-.84,4.95-2.3,7.08Z"/>
  <path class="cls-16" d="M317.97,103.37c-2.13-1.52-2.25-4.49-4.36-6.1-.07.58-.14,1.13-.21,1.68-1.1-1.33-1.29-3.05-2.01-4.55,1.21-1.82,1.43-.03,1.98.55,1.5,2.82,3.73,5.25,4.59,8.42Z"/>
  <g>
    <polygon class="cls-6" points="268.95 20.38 268.96 20.38 268.96 20.37 268.95 20.38"/>
    <path class="cls-6" d="M265.94,23.13c1.53-1.23,3.62-.99,5.05-2.2-.35-1.41-1.26-.7-2.03-.55-.9.65-2.04.61-3.02,1.06-.71.61-2.52,1.32-1,2.2,1.54.89,3.03,2.35,5.09,2.21-.99-1.38-2.82-1.5-4.09-2.71Z"/>
  </g>
  <path class="cls-6" d="M342.98,111.89c-.02,1.13-.74,1.99-1.22,2.91-.37.7-1.66,1.04-1.67.18-.01-2.15-1.22-.32-1.68-.69.16-.29.3-.58.47-.86.96-1.58,2.09-2.74,4.1-1.53Z"/>
  <path class="cls-30" d="M117.64,121.38c1.54,1.25,2.64,2.07,3.65,2.99.92.83.55,1.65-.28,2.27-.91.68-1.28.05-1.6-.73-.52-1.27-1.48-2.35-1.77-4.53Z"/>
  <path class="cls-21" d="M99.96,118.78c.79,2.11-.35,3.54-.73,5.03-.23.89-1.22.65-1.89.25-.66-.39-.86-.91-.27-1.61.93-1.1,1.78-2.26,2.88-3.68Z"/>
  <path class="cls-30" d="M149.43,107.48c.93,1.52,1.51,2.5,2.12,3.46.31.49.72.98.38,1.58-.35.63-1.01.4-1.56.38-.77-.03-1.26-.43-1.28-1.21-.03-1.2-.22-2.42.35-4.2Z"/>
  <path class="cls-30" d="M141.4,117.96c.13-.55-.46-1.6.5-1.83.96-.23.84,1.02,1.32,1.52.23.23.37.55.51.85.28.64,1.22,1.15.73,1.95-.46.75-1.37.46-2.06.35-1.13-.18-.95-1.17-.99-1.98-.01-.25,0-.5,0-.87Z"/>
  <path class="cls-10" d="M109.99,101.33c1,.83,2,1.66,3,2.5.91.76.48,1.5-.17,2.07-.75.65-1.28.33-1.67-.55-.54-1.23-1.19-2.42-1.79-3.63.21-.13.42-.25.63-.38Z"/>
  <path class="cls-30" d="M178.87,109.94c-.3-.25-.8-.47-.86-.76-.08-.4.46-.35.75-.35.99-.02,1.98-.03,2.97.02.62.03,1.42-.21,1.73.59.39.98-.24,1.54-1,1.99-1.1-.75-2.62-.45-3.6-1.47Z"/>
  <path class="cls-30" d="M165.19,89.51c.96,1.56,1.62,2.6,2.23,3.66.27.47.81,1.09.25,1.53-.38.3-1.09.19-1.65.22-.67.03-1.16-.26-1.18-.97-.02-1.27-.28-2.58.35-4.44Z"/>
  <path class="cls-4" d="M215.98,252.85c4.18,1.01,8.22,2.41,12.01,4.49-4.18-1.03-8.25-2.35-12.01-4.49Z"/>
  <path class="cls-29" d="M421.44,121.86c-.36,1.45-1.92,1.94-2.54,3.2-.16.32-.53.69-1.01.39-.4-.24-.54-.7-.43-1.08.48-1.58.58-3.35,2.04-4.49.42,1.23-1.22,2.16-.5,3.5.99-.29,1.41-1.42,2.45-1.53Z"/>
  <path class="cls-29" d="M420.45,117.88c.12-.69.25-1.39.4-2.22-.52.26-.97.48-1.42.7.5-1.86,1.94-2.89,3.57-3.84-.34,2.03-1.16,3.82-2.55,5.36Z"/>
  <path class="cls-2" d="M109.93,34.79c.08-.7-.43-.81-.94-.91,1.31-1.46,2.85-2.58,4.72-3.27-.85,1.8-2.06,3.22-3.78,4.18Z"/>
  <path class="cls-6" d="M340.89,103.33c.01-.33.16-.76,0-.96-.41-.55-.66.07-.94.26-.53.38-1.02.81-1.52,1.22.86-2.17,2.61-3.36,4.93-4.59-.29,2.02-1.4,3.04-2.47,4.07Z"/>
  <path class="cls-30" d="M115.36,115.53c-1.53-.71-1.82-1.88-.97-3.23.81-1.29,2.09-1.63,3.45-.92,1.62.85,1.42,2.2.76,3.59-.1-.06-.19-.12-.29-.18-.04-.07-.09-.13-.13-.2-.43-.75-.24-2.2-1.69-1.85-1.18.29-.68,1.44-.76,2.26-.03.24-.15.42-.37.52Z"/>
  <path class="cls-30" d="M153.98,92.13c-.53.98-.72,2.15-2.07,2.22-.54.03-1.06-.29-.89-.87.31-1.06,1.11-1.84,2.1-2.24.66-.26.6.53.85.89Z"/>
  <path class="cls-6" d="M268.96,20.37c-.73,1.15-1.94.91-3.02,1.06-1.06-.26-2.85.57-3.02-.81-.15-1.17,1.41-2.06,2.58-2.71.19,1.15-1.45,1.36-1.29,2.61,1.58.61,3.16-.1,4.74-.15Z"/>
  <path class="cls-30" d="M130.62,120.32c.74.06,1.25.43,1.27,1.2.02.91-.55,1.31-1.4,1.3-.86,0-1.07-.61-1.07-1.32-.01-.8.41-1.19,1.21-1.19Z"/>
  <path class="cls-31" d="M334.49,114.41c.13-.05.27-.07.42-.07.47.81-1.27,2.55,1.08,2.57-.91.81-1.83,1.63-2.88,2.56-.35-1.98,1.08-3.39,1.38-5.07Z"/>
  <path class="cls-30" d="M139.06,87.38c-.13.93-.45,1.62-1.41,1.49-.56-.07-1.24-.38-1.15-1.07.11-.81.8-1.22,1.58-1.36.85-.16.93.44.98.94Z"/>
  <path class="cls-30" d="M138.15,80.86c-.05.66-.36,1.08-1.05,1.11-.84.04-1.2-.48-1.17-1.22.02-.61.37-1.14,1.04-1.14.75,0,1.19.45,1.19,1.25Z"/>
  <path class="cls-30" d="M156.63,84.74c0,.71-.4,1.04-1.07,1.07-.7.03-1.08-.31-1.1-1.01-.03-.8.33-1.27,1.16-1.21.68.05,1,.48,1.01,1.15Z"/>
  <path class="cls-6" d="M313.38,94.95c-.72.04-.92-1.83-1.98-.55-.96-.51-1.37-1.51-.63-2.14.83-.71,1.26.58,1.81,1.04.47.4.97.89.81,1.65Z"/>
  <path class="cls-12" d="M419.43,116.37c-.73,2.11-1.95,3.91-3.49,5.51.62-2.18,1.77-4.03,3.49-5.51Z"/>
  <path class="cls-30" d="M134.98,102.45c.85-.02,1.29.31,1.41.95.12.61-.27.89-.83.95-.62.06-1.23-.07-1.36-.74-.14-.67.36-1.01.79-1.16Z"/>
  <path class="cls-30" d="M109.16,118.04c.63.27,1.51.37,1.66,1.2.12.66-.56.66-1.03.69-.86.05-1.44-.34-1.49-1.22-.03-.46.35-.69.86-.67Z"/>
  <path class="cls-30" d="M183.41,113.47c.03.3.06.61.09.91,0,0,0,0,0,0-1.81,1.17-2.35.95-2.53-1.02.85-.9,1.66-.64,2.44.11Z"/>
  <path class="cls-30" d="M152.99,117.89c-1.24.14-.86.8-.46,1.46-.16,0-.36.05-.48-.03-.81-.47-2.14-1.02-1.49-2,.66-1,1.73-.17,2.44.57Z"/>
  <path class="cls-30" d="M147.73,84.72c.65.21.84.74.82,1.31-.01.56-.38.89-.96.79-.49-.08-.97-.35-.92-.92.05-.6.49-.98,1.05-1.18Z"/>
  <path class="cls-30" d="M174.86,110.91c-.11.59-.51.85-1.05.87-.63.02-.85-.41-.81-.97.04-.55.29-.98.93-.87.53.09.88.42.93.98Z"/>
  <path class="cls-30" d="M176.92,106.3c.69-2.33-1.85-1.37-2.44-2.4,1.06-.12,2.13-.19,2.94.67.74.79.99,1.54-.49,1.73Z"/>
  <path class="cls-30" d="M132.03,108.56c-.02.52-.19,1.01-.74,1.1-.83.14-.85-.53-.88-1.09-.03-.53.16-1.03.76-1,.52.02.83.43.86.99Z"/>
  <path class="cls-2" d="M102.04,42.94c.29-1.77,1.7-2.59,2.96-3.55-.47,1.61-1.71,2.59-2.96,3.55Z"/>
  <path class="cls-6" d="M388.98,112.39c.14.85,0,1.7-.47,2.38-.78,1.13-1.3.74-1.55-.42,1.62.32.99-1.68,2.03-1.97Z"/>
  <path class="cls-30" d="M165.36,101.15c.54.2.69.63.58,1.16-.08.41-.3.84-.77.73-.55-.12-.7-.63-.62-1.15.07-.43.31-.73.81-.73Z"/>
  <path class="cls-8" d="M190.94,116.46c0,1.78-.01,3.56-.02,5.34-.69-1.78-.63-3.56.02-5.34Z"/>
  <path class="cls-30" d="M118.6,114.97c-.94.98-1.87,2.07-3.24.56.09-.1.17-.2.26-.31.83-.53,1.71-.81,2.69-.53.09.09.19.19.28.28Z"/>
  <path class="cls-30" d="M180.97,113.36c.36,1.52,1.06,2.22,2.53,1.02-.16,1.49-1.25,1.16-2.04.88-.86-.31-1.37-1-.48-1.9Z"/>
  <path class="cls-6" d="M288.98,116.55c-1.2-4.38-4.74-7.35-9.05-7.61-4.37-.26-8.37,2.25-10.07,6.33-.19.46-.44.91-.52,1.4-.2,1.15-.71,1.94-1.99,1.55-1.31-.4-.82-1.4-.58-2.27,1.68-6.09,7.34-10.13,13.44-9.63,6.44.54,11.34,5.45,11.94,11.97.05.57-.06,1.18.44,1.63.15,1.27,1.01.09,1.48.41.35.24.82.45.65.88-.26.66-.71,1.24-1.08,1.86-.29-.27-.57-.54-.86-.81-.08.07-.24.13-.28.24-.3.84.23,2.32-1.13,2.35-1.32.02-.93-1.49-1.31-2.33-.87-1.9-.1-4.1-1.07-5.98Z"/>
  <path class="cls-1" d="M338.5,121.32c-.23-.37-.53-.69-.63-1.05-.3-1.1,1.65-3.91,2.78-4.07.51-.07.83.24.87.66.06.71.65,1.52-.02,2.13-.9.83-1.93,1.51-3,2.33Z"/>
  <path class="cls-34" d="M352.52,123.24c-.88-.37-.98-1.18-1.04-1.98-.04-.57-.06-1.29.71-1.3,1.1-.02,1.25.85,1.24,1.72,0,.66-.06,1.31-.9,1.57Z"/>
  <path class="cls-37" d="M343.1,122.73c-.1.55.11,1.47-.64,1.38-.84-.1-1.25-1.01-1.4-1.83-.12-.72.46-1.09,1.05-1.12,1.2-.07.79.97.98,1.57Z"/>
  <path class="cls-8" d="M359.15,129.93c-.24-1.57-.44-3.11-.13-4.71.54-2.74.01-3.97-2.33-5.43-1.7-1.06-3.17-2.36-4.45-3.88-.17-1.48.07-2.95.21-4.42-.09-.8.26-1.74-.76-2.22-1.7,2.13-2.02,4.73-2.53,7.29-.14.68.1,1.98-1.13,1.81-.89-.13-1.51-.98-1.55-2-.05-1.4.08-2.82-.05-4.21-.11-1.17,1.19-2.9.08-3.28-1.3-.44-2.09,1.51-3.11,2.41-.18.16-.29.4-.42.61h0c-.84.63-1.35,2.62-2.22,1.99-1.3-.95-1.61.2-2.35.4-.62,1.05-1.36,1.99-2.42,2.63-1.1.35-2.22.66-2.68,2.18.6-1.77,1.19-3.26,1.39-4.87.7-1.93,1.64-3.75,2.5-5.61.39-.84,1.74-1.85.74-2.54-1.15-.8-1.14,1.21-1.99,1.58-1.64,1.58-2.19,3.88-3.7,5.57-.95,1.06-2.36,1.07-3.3.98-.89-.09-.35-1.5.02-2.32.08-1.73,1.32-3.3.8-5.55-1.73,2.73-2.47,5.41-3.29,8.05-.16.52-.04,1.33-.75,1.38-.59.04-.83-.7-1.22-1.11-3.08-3.24-4.62-7.37-6.54-11.27-1.55-2.11-2.22-4.82-4.29-6.55-.39.22-.52.45-.52.69,0,.49.02.98.24,1.44,2.01,6.95,4.65,13.72,5.64,20.99-1.21-1.67-2.42-3.33-3.62-5-.57-1.14-1.59-1.89-2.45-2.77-.35-.36-.81-.74-1.29-.36-.55.43-.01.87.16,1.29,1.17,2.88,3.19,5.41,3.76,8.82-1.14-1.64-2.34-2.93-2.66-4.72-.09-.49-.34-.97-.93-1.02-.76-.06-.91.56-1.13,1.09-.16.38-.13.82-.37,1.17.08.15.07.29-.04.42-2.14-.49-2.65-2.17-2.73-4-.15-3.08.72-6.07.89-9.13.05-.96.48-2.03-.58-3.05-2.24,5.76-3.87,11.48-5.51,17.24-.54-1.74-.22-3.47-.5-5.15-.12-.73-.13-2.19-1.56-.9-.39,1.92-.78,3.85-1.21,5.97-.92-.87-.42-1.75-.85-2.38l-5.22,1.9c-.24.06-.46.16-.66.29-1,1.42.84,1.2,1.2,2.13-1.53-.4-1.64,1.16-2.47,1.77-.74-.89-.77-1.83-.99-2.7-.28-1.14-.04-2.33-.32-3.46-.22-.9-.6-1.74-1.47-.4-.34,1.13-.27,2.31-.24,3.47.07,3.09-1.46,5.27-3.99,6.74-3.28,1.91-6.74,1.94-9.99.03-2.04-1.2-4.1-1.63-6.41-1.62-18.4.03-36.8.04-55.2,0-2.55,0-4.85.41-7.16,1.67-4.3,2.36-8.26,1.57-11.79-1.94-.46-.46-.84-1.07-1.65-.88-.03,1.78-1.4,1.31-2.37,1.34-12.66.35-25.32.66-37.97,1.01-12.41.35-24.79,1.04-37.17,1.93-9.71.7-19.31,2.66-29.11,2.4-3.44-.09-3.53-.05-2.42-3.24,3.67-10.56,8.22-20.71,14.15-30.19,25.6-40.93,62.22-65.39,109.89-73.14,17.26-2.81,34.51-2.36,51.69.92,3.26.62,5.19,2.48,5.84,5.66.93,4.56,1.64,9.17,2.67,13.71,2.79,12.22,11.82,17.27,22.42,18.81,1.62.23,1.41-.43.82-1.52-1.2-2.21-1.71-4.63-2.13-7.12-.9-5.35-.54-10.81-1.64-16.14-1.43-6.99-5.12-11.96-12.04-14.28-.65-.22-1.54-.25-1.47-1.4,5.37-.9,7.87-4.78,9.73-9.35,1.59-3.91,2.25-8.27,5-11.62,1.53-1.86.52-1.91-.99-2.09-7.8-.92-14.05,2.68-17.71,10.2-1.23,2.53-2.07,5.26-3.73,7.58-.43,1.01-2.26,1.57-1.58,2.73.59,1,2.21.52,3.39.64.39.04.79-.18,1.19-.28.24-.07.48-.15.72-.26.3-.09.59-.2.88-.32-.38-.02-.79.07-1.14-.05,4.89-1.8,7.36-5.9,9.65-10.16.54-1,1.05-2.01,1.84-2.85h0c.59-.75,1.07-1.63,2.33-1.78.09,1.66-.95,2.64-1.89,3.67-1.69,1.63-2.07,4.03-3.43,5.86-1.76,2.38-3.47,4.8-6.47,5.8-.14-.23-.31-.35-.49-.42-1.22.52-2.51.87-3.68,1.49-1.13.6-1.42,1.42-.06,2.14,1.08.57,2.11,1.25,3.25,1.71,0,0,0,0,0,0,4.79,2.43,7.29,6.72,9.27,11.43.29.68.47,1.41.7,2.11,1.03,2.4,1.83,4.87,2.01,7.5,1.19,2.08,1.3,4.45,1.8,6.74-3.45-3.76-4.11-8.6-5.29-13.23-1.84-6.14-5.14-11.11-11.13-13.94-.67-.28-1.33-.57-2-.85-1.12-1.08-2.65-1.3-4.03-1.69-7.57-2.14-15.33-3.43-23.11-4.37-5.08-.61-10.23-.97-15.37-1.09-8.87-.21-17.68.72-26.46,1.86-8.63,1.11-17.07,3.12-25.37,5.71-6.16,1.92-12.24,4.08-18.03,6.95-.58.33-1.13.7-1.73.97-12.45,5.69-23.99,12.86-34.58,21.5-19.52,15.91-34.57,35.33-45.19,58.17-3.25,7-6.2,14.12-8.08,21.64-.06,1.27.87,1.46,1.79,1.59.82.11,1.66.05,2.5.05,89.26,0,178.52,0,267.79,0,2.99,0,5.98-.13,8.97-.18,1.47-.03,2.8-.44,3.77-1.62,2.27-2.76,4.95-3.96,8.6-2.86,1.92.58,2.6-.24,2.29-2.27Z"/>
  <path class="cls-6" d="M351.51,109.4c.36-.97.72-1.94,1.25-3.37.31,2.22-.32,3.82-.76,5.45-.18-.69.18-1.5-.49-2.07Z"/>
  <path class="cls-17" d="M266.45,102.7c-1.3,3.19-3.47,4.3-5.77,5.1-3.32,1.16-6.78,1.65-10.29,1.67-8.9.05-17.81,0-26.71.04-1.53,0-2.94-.48-4.42-.71-.5-.08-1.14-.25-1.1-.81.06-.82.85-.62,1.39-.62,5.91.02,11.82.13,17.72.07,6.48-.07,12.97.3,19.44-.52,3.45-.44,6.38-1.94,9.73-4.23Z"/>
  <path class="cls-26" d="M298.49,112.49c-.26-3.24-1.74-4.86-4.91-5.75-3.84-1.07-7.61-2.52-11.52-3.15-4.35-.7-6.98-2.93-8.61-6.83-.39-.93-.86-2.37-2.08-2.27-3.39.28-7.13-1.47-10.09,1.76-.71.77-2.04,1.13-3.15,1.37-7.85,1.73-15.72,1.35-23.53-.26-2.01-.41-4.45-.79-5.54-2.56-1.64-2.65-3.96-2.69-6.42-2.57-2.07.1-3.5-.57-4.44-2.42-.93-1.84-2.44-2.43-4.51-2.28-2.48.19-4.99.01-7.49.06-1.17.02-2.02-.33-2.81-1.25-7.33-8.5-14.68-16.99-22.11-25.42-1.31-1.49-1.53-2.21.72-2.59,1.16-.19,2.1-.96,1.76-2.26-.34-1.29-1.34-1.74-2.73-1.5-5.33.92-10.66,1.77-16,2.66-1.64.27-3.28.53-4.92.83-1.32.24-2.56.8-2.3,2.37.23,1.43,1.45,1.64,2.74,1.43.66-.11,1.33-.12,1.98-.27,1.44-.34,2.48.09,3.54,1.16,12.07,12.19,24.19,24.33,36.29,36.48.42.42.98.8.97,1.79-3.96-1.46-7.68-2.82-11.4-4.18-1.51-.51-3.08-.45-4.64-.48-1.52-.03-2.18.57-2.34,2.15-.3,3.03.09,6.1-.49,9.11-.49,2.06.09,4.13,0,6.2-.05,1.1.66,1.86,1.83,1.98,1.07.11,2.01-.15,2.38-1.32.3-.96.95-1.75,1.23-2.71,6.6-7.98,18.71-6.76,22.53,2.34.48,1.14,2.08,3.02.17,3.86-2.13.94-1.82-1.63-2.3-2.68-1.87-4.13-5.87-6.75-10.3-6.45-4.34.29-7.84,3.23-9.07,7.6-.33,1.78-.28,3.56-.02,5.34-.22,1.14.31,1.96,1.13,2.66,1.2.36.97,1.75,1.9,2.47,3.79,2.9,8.49,3.35,12.51.73,1.47-.96,2.93-1.32,4.65-1.31,19.14.04,38.29.05,57.43,0,1.99,0,3.64.43,5.32,1.57,4.27,2.9,10.69,1.4,13.77-2.7,2.07-2.76,1.05-5.75,1.36-8.65.6-.72.23-1.42-.06-2.1-1.69-4.01-6.74-6.78-11.06-6.05-4.3.73-7.23,3.15-8.84,7.2-.25.63-.3,1.82-1.25,1.45-.82-.32-.23-1.31-.06-2.01.06-.24.17-.47.27-.7,2.23-5.1,7.4-7.98,13-7.23,5.29.71,9.42,4.77,10.3,10.11.17,1.02-.07,2.26,1.31,2.7.57-.02,1.23-.23,1.7-.03,2.55,1.09,3.72.01,4.12-2.44.04-1.66.21-3.33.08-4.97ZM171.62,64.87c-.98-1.29-2.47-2.2-4.09-3.59,3.06-1.46,5.6-1.41,8.04-1.83.96-.17,1.53.54,2.08,1.16,1.32,1.5,2.58,3.05,3.94,4.51,1.23,1.33.76,1.59-.76,2.26-3.89,1.71-6.73.79-9.22-2.5ZM185.52,78.73c-2.11-2.13-4.18-4.29-6.36-6.35-1.38-1.3-.88-1.89.63-2.28,1.45-.38,2.89-.74,4.21-1.08.94-.16,1.34.44,1.77.93,2.3,2.63,4.54,5.3,6.89,7.89,1.03,1.13.65,1.63-.55,2.16-3.7,1.64-3.69,1.66-6.59-1.27ZM199.04,91.12c-.84.52-1.38-.13-1.9-.68-1.78-1.86-3.54-3.74-5.34-5.58-1.08-1.1-1.22-1.57.5-2.37,2.48-1.15,4.16-.86,5.66,1.41.86,1.31,1.97,2.46,2.97,3.67.32.38.69.72.66,1.39-.59.94-1.58,1.55-2.55,2.15ZM200.57,122.87c-2.13-.03-3.61-1.57-3.55-3.67.06-2.09,1.61-3.52,3.76-3.46,1.9.06,3.49,1.67,3.5,3.54.02,1.93-1.73,3.62-3.71,3.59ZM279.12,115.74c1.98-.03,3.69,1.65,3.68,3.61-.01,1.93-1.76,3.56-3.76,3.51-1.98-.05-3.45-1.51-3.49-3.47-.04-2.07,1.48-3.62,3.57-3.65Z"/>
  <path class="cls-8" d="M92.25,151.26c-3.16-.11-6.33-.09-9.49-.09-7.33-.01-14.66.05-21.99-.04-1.9-.02-2.96.19-2.7,2.51.19,1.71-.28,3.46-.74,5.16-1.15,4.25-2.09,8.56-3.32,12.79-1.89,6.53-2.78,13.36-5.71,19.58-.59,1.25-.05,1.45.99,1.45,4.91,0,9.83,0,14.74,0,.94,0,1.57-.18,1.57-1.37.01-5.07,2.1-9.72,3.05-14.59.39-1.99,1.62-1.7,2.93-1.77,1.45-.08,1.76.74,1.98,1.97.84,4.66,1.79,9.31,2.69,13.96.16.84.25,1.76,1.37,1.76,5.21.02,10.43.01,15.86.01-.64-1.36-1.32-2.34-1.57-3.42-.96-4.13-1.76-8.29-2.66-12.44-.29-1.34.22-1.71,1.52-1.84,2.35-.23,4.82-.72,5.75-3.25,1.46-3.98,2.69-8.07,3.06-12.3.38-4.31-2.97-7.93-7.32-8.09ZM82.88,163.53q-1.06,4.28-6.79,4.28-5.21,0-3.84-4.92t6.29-4.86q5.7-.02,4.34,5.5Z"/>
  <path class="cls-6" d="M391.95,122.37c0-2.85,0-5.7,0-8.6,1.55.18,1.39,1.88,2.57,2.08,2.33,3.57,4.09,7.36,4.6,11.66-1.57-1.77-2.35-4.03-4.51-6.28.62,1.85.88,3.06,1.42,4.13.68,1.33-.02,1.77-1.04,2.22-1.48.65-1.16-.7-1.43-1.3-.58-1.28-1.08-2.59-1.61-3.89Z"/>
  <path class="cls-6" d="M386.95,120.88c-.81-.01-1.48-.17-1.47-1.21.02-1.46,0-2.92,0-4.39,1.14-.22,1.22.92,1.9,1.09.62,1.58.81,3.11-.44,4.51Z"/>
  <path class="cls-5" d="M383.19,120.52c.15.3.21.37.22.45.24,1.69.03,3.24-1.48,4.3-.27.19-.82-.02-.77-.31.24-1.58.36-3.24,2.04-4.43Z"/>
  <path class="cls-15" d="M387.44,123.88c-.08.52-.06,1.24-.85,1.14-.53-.06-.7-.65-.67-1.16.03-.57.13-1.24.88-1.18.59.05.6.67.64,1.19Z"/>
  <path class="cls-7" d="M322.51,182.24c.82,1.44,1.03,3,.96,4.62-.71-1.46-1.02-3-.96-4.62Z"/>
  <path class="cls-8" d="M352.13,135.35c.3-.57.78-.86,1.39-.64.49.18,1.26.29,1.05,1.07-.14.54-.74.57-1.24.54-.61-.04-1.12-.24-1.2-.97Z"/>
  <path class="cls-27" d="M252.49,188.91c-3.79.98-7.21,1.17-10.67.8-.24-.03-.49-.13-.71-.24-.81-.41-2.09,1.08-2.4-.16-.43-1.71,1.46-.24,1.87-.97.55-.98.93-2.24-.22-2.84-1.19-.62-1.23-1.21-.97-2.34.29-1.26.38-2.64-1.57-3.32,3.51-1.08,3.13-3.96,3.57-6.22.4-2.06,1.06-4.01,1.78-5.93.47-1.25,1.21-2.62,3.07-2.36.8.11,1.53-.22,1.65-1.14.13-.97-.1-1.95-1.12-2.23-1.89-.52-1.48-1.47-.6-2.52.77-.92,1.38-1.88,1.3-3.13-.16-2.42,1.45-3.13,3.38-3.42.98-.14,1.99-.06,2.99-.02,2.58.1,2.35.8,2.31,3.27-.05,2.54-1.84,4.77-.96,7.34.06.19-.02.62-.1.64-2.93.63-2.35,3.77-3.87,5.46-1.2,1.33-1.59,3.12.01,4.92,1.05,1.18-.04,2.75-.77,3.74-2.34,3.15-2.17,6.89.73,9.57.3.28.62.53,1.3,1.1Z"/>
  <path class="cls-40" d="M81.47,208.87c0-.08-.01-.17-.02-.25-.45-3.28-1.93-4.62-5.29-4.71-1.75-.05-3.5,0-5.24,0v-.02c-1.91,0-3.83.06-5.74-.02-1.58-.06-2.28.53-2.25,2.17.06,3.33.07,6.66,0,9.99-.04,1.78.74,2.34,2.41,2.28,2.58-.08,5.16.08,7.74-.04,7.8-.36,8.53-.27,8.41-9.39ZM76.78,213.41c-.73,1.66-8.86,1.92-9.46.31-.66-1.77-.64-3.84,0-5.6.47-1.28,2.07-.52,3.16-.67.49-.07.99-.01,1.49,0,.58,0,1.16,0,1.74,0,1.16,0,2.5-.18,3.04,1.13.64,1.56.7,3.32.03,4.84Z"/>
  <path class="cls-40" d="M207.5,214.77c-1.16-.39-1.54-1.36-1.79-2.48-.5-2.27-1.71-2.71-3.57-1.14-.71.6-1.08.44-1.7.15-1.5-.71-3.02-1.38-4.52-2.09-.59-.28-1.39-.63-1.26-1.35.15-.88,1.11-.89,1.82-.9,1.49-.01,2.95.08,4.28.97,1.17.78,2.78,1.13,3.5-.16.8-1.44.05-2.93-1.65-3.57-.53-.2-1.12-.29-1.69-.32-1.16-.05-2.33-.01-3.49-.02-1.16,0-2.33-.03-3.49,0-3.16.1-4.46,1.6-3.72,4.66.29,1.21-.12,1.77-.78,2.59-2.05,2.58-.8,6.36,2.39,6.9,3.86.65,7.78.73,11.58-.42.97-.29,1.71-.79,2.73-.04.71.53,1.61.43,2.04-.61.38-.92.59-1.76-.69-2.18ZM196.36,215.36c-1.39-.22-3.02.45-3.76-1.26-.25-.58-.26-1.39.34-1.84,1.38-1.04,2.46.2,3.65.57.08.02.17.03.24.07.91.64,2.89.84,2.69,1.68-.35,1.46-2.12.41-3.16.77Z"/>
  <path class="cls-40" d="M158.14,203.92c-2.33-.12-4.66-.06-7-.04-5.75.06-5.07-.75-5.12,4.99,0,.75,0,1.5,0,2.25h0c0,1.75,0,3.5,0,5.25,0,1.02.22,1.89,1.46,1.88,1.15,0,2.75.07,2.81-1.38.1-2.19,1.35-2.09,2.83-2.06,1.58.03,3.17.02,4.75-.01,3.52-.07,5.04-1.47,5.1-4.67.08-4.55-1-6-4.84-6.19ZM156.29,211.24c-.66-.02-1.32,0-1.98,0v-.02c-.83,0-1.65.02-2.48,0-1.25-.04-1.4-.89-1.4-1.89,0-1.03.24-1.83,1.46-1.85,1.49-.02,2.97-.02,4.46,0,1.39.01,2.16.66,2.14,2.12-.02,1.52-1.02,1.69-2.2,1.65Z"/>
  <path class="cls-40" d="M143.11,215.97c-1.77-3.55-3.57-7.08-5.4-10.61-1.07-2.07-6.82-2.33-8.03-.26-2.17,3.71-4.16,7.53-6.22,11.31-.34.62-.58,1.51.26,1.66,1.47.26,3.14.87,4.31-.78.38-.54.78-1.42,1.37-1.34,3.3.48,7.14-1.99,9.87,1.74.57.78,1.51.52,2.32.57,2.35-.01,2.54-.26,1.51-2.31ZM136.26,211.87c-.47,1.67-1.95.63-2.95,1.05-.84-.47-2.28.72-2.63-.98-.17-.81,2.22-4.39,2.79-4.42.63-.03,3.03,3.52,2.79,4.35Z"/>
  <path class="cls-40" d="M261.86,216.41c-1.78-3.17-3.51-6.37-5.08-9.64-1.01-2.11-2.2-3.55-4.28-2.92-1.94.12-3.55-.41-4.47,1.33-2.06,3.88-4.14,7.73-6.21,11.6-.3.57-.42,1.35.34,1.37,1.48.03,3.35.91,4.31-.89.75-1.4,1.77-1.51,3.07-1.48,1.75.04,3.49.01,5.24,0,.85,0,1.74-.03,2.15.9.78,1.77,2.29,1.6,3.81,1.61,1.54,0,1.98-.38,1.13-1.88ZM251.6,212.94c-.8-.51-2.36.75-2.46-1.15-.05-.97,2.42-4.47,2.9-4.25,1.7.79,2.17,2.61,2.33,4.08.23,2.08-1.81.79-2.77,1.32Z"/>
  <path class="cls-40" d="M373.04,215.23c-1.45-2.98-3.22-5.8-4.58-8.82-.94-2.08-2.23-2.98-4.11-2.52-1.82.01-3.51-.41-4.4,1.21-2.12,3.85-4.14,7.75-6.17,11.65-.56,1.07-.1,1.52,1.04,1.53,1.59,0,3.23.2,4.02-1.7.2-.49.68-.85,1.2-.75,3.28.63,7.1-1.76,9.89,2.01.76,1.02,2.69.82,3.73.12,1.36-.93-.21-1.9-.61-2.72ZM363.75,212.93c-.88-.52-2.36.7-2.64-1.07-.13-.85,2.42-4.58,2.84-4.32,1.49.94,2.12,2.63,2.31,4.14.25,2.01-1.7.66-2.51,1.25Z"/>
  <path class="cls-40" d="M38.42,216.23c-1.9-3.58-3.73-7.2-5.67-10.75-1.17-2.14-6.84-2.45-8.06-.35-2.2,3.78-4.15,7.7-6.24,11.55-.34.63-.35,1.3.32,1.42,1.34.23,3.13.86,3.94-.49,1.49-2.48,3.71-1.81,5.74-1.75,2,.05,4.35-.94,5.78,1.66.45.81,1.77.74,2.78.77,1.54.05,2.28-.41,1.41-2.04ZM30.47,211.84c-.43,1.73-1.99.66-3.02,1.09-.88-.48-2.35.7-2.75-.96-.18-.75,2.28-4.42,2.85-4.47.66-.06,3.14,3.44,2.92,4.34Z"/>
  <path class="cls-39" d="M381.07,109.07c.4-.26.8-.53,1.41-.93-1.57,3.7-3.06,7.2-4.55,10.7-2.66.91-1.48-1.17-1.17-1.79,1.09-2.2,2.44-4.27,3.66-6.41.28-.49.44-1.05.65-1.57Z"/>
  <path class="cls-6" d="M302.94,111.35q1.32,3.37-.26,8.66c-.87-3.02-.73-5.84.29-8.64,0,0-.03-.02-.03-.02Z"/>
  <path class="cls-30" d="M118.32,114.69c-.84.46-1.7.86-2.69.53-.86-.87-1.02-1.88-.33-2.86.53-.75,1.42-.83,2.2-.43,1.2.6,1.06,1.69.82,2.76Z"/>
  <path class="cls-30" d="M162.1,115.49c-.14.7-.44,1.37-1.26,1.22-.66-.12-1.23-.63-1.13-1.4.1-.77.68-1.1,1.45-1.04.74.06.94.57.95,1.22Z"/>
  <path class="cls-40" d="M172.96,218.65c-1.91,0-3.83-.05-5.74.02-1.47.05-2.13-.5-2.11-2.03.05-3.41.06-6.83,0-10.24-.03-1.64.65-2.18,2.24-2.15,3.83.07,7.66.03,11.49,0,1.22,0,2.14.19,2.15,1.72.01,1.49-.82,1.81-2.08,1.79-2.16-.03-4.33-.06-6.49.03-.98.04-2.67-.53-2.67.94,0,1.8,1.79.88,2.76.95,1.99.15,3.99.07,5.99.04,1.11-.02,1.7.33,1.69,1.56,0,1.29-.72,1.5-1.76,1.49-2.33-.02-4.66,0-6.99,0-.88,0-1.8.1-1.8,1.22,0,1.15.97,1.17,1.83,1.17,2.58,0,5.16.02,7.74,0,1.18-.01,1.91.29,1.85,1.68-.05,1.25-.58,1.82-1.83,1.81-2.08-.02-4.16,0-6.24,0Z"/>
  <path class="cls-40" d="M427.78,218.24c-1.91,0-3.83-.05-5.74.02-1.47.05-2.13-.5-2.11-2.03.05-3.41.06-6.83,0-10.24-.03-1.64.65-2.18,2.24-2.15,3.83.07,7.66.03,11.49,0,1.22,0,2.14.19,2.15,1.72.01,1.49-.82,1.81-2.08,1.79-2.16-.03-4.33-.06-6.49.03-.98.04-2.67-.53-2.67.94,0,1.8,1.79.88,2.76.95,1.99.15,3.99.07,5.99.04,1.11-.02,1.7.33,1.69,1.56,0,1.29-.72,1.5-1.76,1.49-2.33-.02-4.66,0-6.99,0-.88,0-1.8.1-1.8,1.22,0,1.15.97,1.17,1.83,1.17,2.58,0,5.16.02,7.74,0,1.18-.01,1.91.29,1.85,1.68-.05,1.25-.58,1.82-1.83,1.81-2.08-.02-4.16,0-6.24,0Z"/>
</svg>