<?xml version="1.0" encoding="UTF-8"?>
<svg id="Layer_1" data-name="Layer 1" xmlns="http://www.w3.org/2000/svg" viewBox="0 0 191.8 122.18">
  <defs>
    <style>
      .cls-1, .cls-2, .cls-3, .cls-4, .cls-5 {
        stroke-width: 0px;
      }

      .cls-1, .cls-6 {
        fill: #febf12;
      }

      .cls-2 {
        fill: #5c8231;
      }

      .cls-7 {
        fill: #ffb904;
        font-family: FZLTZHK--GBK1-0, 'Lantinghei SC';
      }

      .cls-7, .cls-6 {
        font-size: 12px;
      }

      .cls-3 {
        fill: #d4a41a;
      }

      .cls-4 {
        fill: #fdbf12;
      }

      .cls-6 {
        font-family: MyriadPro-Regular, 'Myriad Pro';
      }

      .cls-5 {
        fill: #458749;
      }
    </style>
  </defs>
  <path class="cls-5" d="M113.33,86.72l.88-.61c.52.23.6.66.53,1.16-8.37,3.92-17.12,4.41-26.1,2.94-1.22-.2-2.05-.7-1.87-2.11,5.8-1.09,11.74-.17,17.54-1.25.65-.37,1.03-1.23,1.97-1.05.93,1.3,2.17,1.43,3.68,1.24,1.11-.13,2.18-.93,3.36-.33Z"/>
  <path class="cls-5" d="M105.27,87.52c-1.14.8-2.44.91-3.78.93-3.94.06-7.9-.73-11.8.6-1.06.36-2.12-.07-2.91-.96-.14-.84-.27-1.68-.41-2.53.25-.16.52-.18.8-.07.51.45,1.17.87,1.78.65,3.85-1.39,7.89.24,11.8-.82,1.45-.39,3.24-.55,4.68.57.14.56.21,1.11-.16,1.62Z"/>
  <path class="cls-5" d="M107.34,80.46c.04.21.07.41.11.62.65,1.1,1.7,1.22,2.82,1.09,1.26-.16,2.49-.24,3.57.6.06,1.03-.11,2.03-.5,2.99-.91.79-2.01,1.04-3.17,1.2-3.19.44-3.9-.14-4.06-3.45.01-.46.02-.92.07-1.38.2-.69.17-1.53,1.16-1.67Z"/>
  <path class="cls-5" d="M117.37,80.26c1.82,1.02,3.69.79,5.57.23-.49,1.7-1.66,2.91-2.95,4.03-.76.17-1.54.24-2.3.39-1.61.31-2.6-.18-1.82-2.09.33-.95.79-1.83,1.5-2.56Z"/>
  <path class="cls-5" d="M106.83,83.01c-.22,2.29.46,3.48,3.07,2.82,1.08-.27,2.29-.07,3.44-.08,0,.32,0,.64-.01.97-1.47,1.75-3.59,1.47-5.51,1.63-1.56.13-1.48-1.21-1.54-2.28-.34-.3-.56-.67-.62-1.12.02-.86-.13-1.83,1.17-1.93Z"/>
  <path class="cls-5" d="M113.84,82.76c-1.25.59-2.62.43-3.93.57-1.61.18-2.59-.47-2.45-2.26,1.81-.06,3.62-.15,5.43-.16.83,0,1.09-.64,1.5-1.13-.18.99-.37,1.98-.55,2.97Z"/>
  <path class="cls-5" d="M86.81,85.59c-.15,0-.29-.01-.44-.01-.15-.83-.29-1.66-.44-2.49,2.37-.09,4.72-.36,7.03-.94.68.51.61,1.24.58,1.97-1,1.94-4.3,2.66-6.73,1.48Z"/>
  <path class="cls-5" d="M80.2,83.47c.93.35,1.86.2,2.78,0,.62,1.13,1.25,2.27,1.87,3.4.14.63.47,1.44-.31,1.75-1.04.42-1.89-.11-2.51-1-.31-1.11-.74-2.16-1.34-3.15-.17-.33-.34-.66-.5-.99Z"/>
  <path class="cls-5" d="M92.44,82.14c-1.85,1.71-4.63,2.12-6.51.94-.08-.32-.17-.63-.25-.95,1.3,0,2.6,0,3.9-.03,1.27-.03,2.2-.54,2.38-1.93.99,0,.72.81.87,1.35-.05.26-.18.46-.39.62Z"/>
  <path class="cls-5" d="M115.87,82.81c.09.98.57,1.46,1.59,1.24.91-.19,1.74.03,2.53.46-.93.87-2.04,1.42-3.25,1.8-1.16.39-2.33.81-2.02-1.22.17-.86.57-1.61,1.14-2.28Z"/>
  <path class="cls-5" d="M72.25,83.3c1.03-.52,2.53-.44,2.7-2.08.63,1.24.89,2.57,1.04,4.18-1.56-.34-2.68-1.16-3.74-2.1Z"/>
  <path class="cls-5" d="M82.27,86.98c.92,1.45,1.82,2.28,2.58-.11.38.75,1.39,1.99.37,2.24-1.41.36-3.21-.01-3.55-2.12.19-.25.39-.26.6-.02Z"/>
  <path class="cls-5" d="M107.34,80.46c-.18.52-.36,1.03-.54,1.55-1.3-.44-.49-1.35-.46-2.08.14-1.48.01-3,.66-4.4.22,1.17-.27,2.42.39,3.54-.02.47-.03.94-.05,1.4Z"/>
  <path class="cls-5" d="M114.73,85.09c.33.97,1.1,1.21,2.02,1.22-.57.52-1.24.83-2,.96-.18-.39-.36-.77-.53-1.16.17-.34.35-.68.52-1.02Z"/>
  <path class="cls-5" d="M137.31,24.86c-.06-1.03.58-1.48,1.72-2.12-.37,1.32-.62,2.09-1.74,2.1,0,0,.03.02.03.02Z"/>
  <path class="cls-5" d="M82.27,86.98c-.2,0-.4.01-.6.02-.51-.77-.85-1.61-.97-2.53.83.64,1.12,1.63,1.57,2.51Z"/>
  <path class="cls-5" d="M92.55,81.65c-.2-.49-.39-.99-.59-1.48.03-.17.07-.34.1-.51.15-.16.3-.33.45-.49.17.53.35,1.06.52,1.58.13.31.21.62.03.94-.19.17-.36.15-.52-.05Z"/>
  <path class="cls-3" d="M130.86,17.77c.25-.23.49-.47.74-.7.48.31,1.13.81.7,1.29-.64.72-1.05-.12-1.44-.58Z"/>
  <path class="cls-1" d="M140.54,67.18c.19,2.74-.9,4.9-2.09,6.96-17.07,29.71-52.24,33.16-74.5,16.61-24.83-18.47-27.36-54.77-5.11-76.49.72-.7,1.37-2.79,2.99-1.24,2.48,2.37,2.51,3.38.78,5.27-12.65,13.8-16.35,29.7-9.47,47.14,6.64,16.83,19.83,26.42,37.63,28.61,18.6,2.29,33.8-4.48,45.01-19.68,1.7-2.31,3.17-4.78,4.74-7.18Z"/>
  <path class="cls-5" d="M92.51,79.18c-2.53-17.4-7.18-34.17-14.99-49.99-3.95-8-8.59-15.59-13.72-22.89-.44-.63-1.17-1.15-1.11-2.29,1.4.51,2.21,1.57,3.11,2.47,17.12,16.94,28.01,37.43,34.49,60.44.47,1.66.24,3.64,1.79,4.93.88-1.35-.1-3,.69-4.36,1.49-9.5,3.32-18.93,5.75-28.24,1.41.56.43,1.58.46,2.4l-.16,6.47c2.08-3.65,3.85-6.77,5.63-9.88.99-.02.78.58.6,1.16-3.22,10.73-5.93,21.58-7.63,32.66-.18,1.14-.26,2.3-.39,3.45-.56,1.55-.13,3.12-.06,4.68-.22.58-.48,1.12-1.09,1.4-3.55.7-7.15.5-10.73.61-.85.02-1.63-.21-2.26-.83-.71-.64-.24-1.46-.35-2.2Z"/>
  <path class="cls-5" d="M137.28,24.84c-.22,1.51-1.18,2.7-1.95,3.9-10.15,15.73-17.21,32.71-20.95,51.06-.09,2.03-1.42,2.26-3.08,2.26-1.39,0-2.79.37-4.04-.57-.2-.23-.32-.49-.36-.78.02-.59.07-1.17.49-1.65,2.78-10.38,6.11-20.53,11.28-30.03,4.6-8.45,10.42-15.98,16.78-23.14.48-.54.95-1.21,1.86-1.03l-.03-.02Z"/>
  <path class="cls-4" d="M130.86,17.77c-1.27-1.05-2.5-2.16-3.82-3.14-15.67-11.77-32.51-13.83-50.52-6.02-1.78.77-4.78-.64-5.17-2.52-.23-1.1.84-1.08,1.42-1.36,5.07-2.45,10.44-3.95,16.03-4.46,14.96-1.38,28.11,2.88,39.31,12.95,1.28,1.15,2.34,2.56,3.5,3.86.09.59-.15.83-.74.7Z"/>
  <path class="cls-5" d="M56.14,48.89c3.94,2.66,6.79,6.33,9.36,10.23,4.47,6.79,7.63,14.17,9.45,22.1.07,2.29-.05,2.38-2.7,2.08-2.55-1.12-4.21-2.8-4.86-5.73-2.24-10.07-6.64-19.28-11.78-28.15-.15-.5.1-.6.52-.53Z"/>
  <path class="cls-5" d="M85.68,82.14c-2.6-12.07-7.21-23.34-13.54-33.92.36-.25.71-.32,1,.11,8.21,7.29,13.37,16.56,17.27,26.65.6,1.54,1.1,3.13,1.65,4.69.17.29.28.6.32.94-.52,2.03-2.75,2.98-5.43,2.26-.46-.12-.86-.46-1.27-.73Z"/>
  <path class="cls-5" d="M117.37,80.26c4.54-8.52,11.11-14.91,19.92-19.01-5.33,6.02-10.29,12.3-14.36,19.24-2.42,2.12-4.54,2.04-5.57-.23Z"/>
  <path class="cls-5" d="M71.9,65.16c5.15,5.22,8.74,11.38,11.09,18.3-.92,1.47-1.85.89-2.78,0-2.58-6.29-5.73-12.31-9-18.26.22-.21.45-.22.69-.05Z"/>
  <path class="cls-5" d="M108.97,41.65c-.24-.78.15-1.69-.46-2.4,0-.5.04-.98.79-1.38.26,1.36.2,2.57-.33,3.78Z"/>
  <path class="cls-5" d="M102.77,67.49c-.03,1.49.17,3.01-.69,4.36.11-1.47-.09-3,.69-4.36Z"/>
  <path class="cls-5" d="M71.9,65.16c-.23.02-.46.03-.69.05-.39-.37-1.13-.94-.42-1.28.73-.35.99.57,1.12,1.23Z"/>
  <path class="cls-5" d="M54.29,67.2c-.1.23-.19.46-.29.69-.48-.22-1.3-.32-.93-1.05.18-.34.88-.06,1.22.36Z"/>
  <path class="cls-5" d="M115.03,39.4c-.2-.39-.4-.77-.6-1.16.13-.38.39-.97.75-.7.75.57.24,1.26-.16,1.86Z"/>
  <path class="cls-2" d="M73.15,48.33c-.33-.04-.67-.07-1-.11-.33-.15-.6-.55-.27-.69.63-.26.96.33,1.27.8Z"/>
  <path class="cls-5" d="M92.87,81.73c.06-.32.12-.65.17-.97,2.74.96,5.58.68,8.38.49,1.49-.1,2.97-.24,4.47-.2.38.51.37,1.06.19,1.63-1.24,1.06-2.57,1.31-4.24,1.07-2.53-.37-5.07.85-7.66.25-.27-.07-.51-.2-.73-.37-.46-.55-.29-1.3-.59-1.9Z"/>
  <path class="cls-5" d="M105.78,82.55c.03-.5.07-.99.1-1.49.16-.38.31-.76.47-1.14.15.69.31,1.39.46,2.08,0,.34.01.67.02,1.01-.18.66-.37,1.31-.55,1.97-.78.18-.95-.38-1.12-.93-.08-.62.25-1.07.62-1.51Z"/>
  <path class="cls-5" d="M105.77,84.03c.17.32.34.64.51.96,0,.36,0,.71,0,1.07-.34.49-.68.98-1.02,1.46,0-.5-.02-.99-.02-1.49-.36-.42-.57-.87-.38-1.43.19-.37.45-.63.91-.57Z"/>
  <path class="cls-5" d="M105.33,84.55c-.03.5-.06.99-.09,1.49-5.23.41-10.51.06-15.71.92-1.26.21-2.34.12-2.72-1.37,1.39-.14,2.78-.32,4.17-.4,1.04-.06,1.73-.43,1.9-1.52.19-.13.22-.48.55-.42.14,0,.28.01.43.02.89,1.24,2.14.94,3.37.81,2.72-.28,5.47-.82,8.1.47Z"/>
  <path class="cls-5" d="M93.44,83.24c-.18.14-.37.28-.55.42-.15-.51-.29-1.01-.44-1.52.04-.16.07-.33.11-.49.11,0,.22.03.32.08.48.4.5.96.57,1.51Z"/>
  <path class="cls-5" d="M105.33,84.55c-3.34.41-6.72.12-10.07.63-1.17.18-1.39-.93-1.41-1.91,3.97-.24,7.95-.48,11.92-.72,0,.49,0,.99-.01,1.48-.14.17-.29.34-.43.52Z"/>
  <text class="cls-7" transform="translate(0 117.44)"><tspan x="0" y="0">Landmark Lawn &amp; Landscape</tspan></text>
  <text class="cls-6" transform="translate(129.23 98.61) rotate(1.42)"><tspan x="0" y="0">®</tspan></text>
</svg>