<svg width="316" height="154" viewBox="0 0 316 154" fill="none" xmlns="http://www.w3.org/2000/svg">
<path d="M202.724 24.75C185.414 8.67308 164.621 2.21251 144.128 6.90159C139.348 7.94053 134.599 9.8566 129.693 12.7276L125.089 8.03849C134.979 2.74563 143.07 5.71176e-06 154.282 0C165.493 -5.71172e-06 184.109 1.05769 202.724 24.75Z" fill="white"/>
<path d="M154.282 122.269C120.635 122.269 93.3585 94.9931 93.3585 61.3462C94.475 41.3296 98.5283 29.593 114.724 15.2308L118.532 20.6512C107.746 30.4422 100.974 44.5745 100.974 60.2885C100.994 89.3754 124.779 113.182 154.282 114.442C170.837 115.789 195.577 110.019 212.666 78.6924C203.782 107.673 180.614 120.7 154.282 122.269Z" fill="white"/>
<path d="M154.916 103.865C145.192 52.647 134.394 33.02 111.974 3.38428C135.391 21.6342 151.013 40.7524 164.647 89.4805C166.85 67.2254 169.426 53.0888 172.474 44.8458C171.825 50.5719 171.689 53.7212 171.839 59.2305L171.868 59.1652C175.104 51.731 176.928 47.5422 180.936 42.3074C171.471 75.1704 170.68 86.4848 169.301 106.615C177.45 63.838 187.679 47.7486 209.705 24.3266C192.172 51.7809 183.889 68.4219 178.609 105.769C187.758 86.6566 194.408 79.5222 208.436 71.9228C198.903 82.6759 193.907 88.8 188.551 100.692C184.924 103.203 182.794 104.418 178.82 106.192C166.352 110.839 159.304 111.221 146.666 109.154C142.553 86.4672 137.794 75.3733 126.359 57.5382C132.158 62.7979 136.131 64.794 142.859 75.7305C148.434 84.6254 151.93 93.0167 154.916 103.865Z" fill="white"/>
<path d="M124.243 75.7305C132.46 83.9467 137.072 88.7422 145.82 108.942C143.628 108.52 142.609 108.231 140.955 107.673C134.66 91.8072 130.908 86.1787 124.243 75.7305Z" fill="white"/>
<path d="M105.628 58.3843C121.891 70.6896 127.468 81.4726 133.763 104.711C129.595 102.554 127.36 101.14 123.609 98.1536C119.115 80.703 114.908 72.2007 105.628 58.3843Z" fill="white"/>
<path d="M202.3 114.654V110H204.3C204.803 110 205.168 110.042 205.395 110.127C205.624 110.21 205.807 110.358 205.944 110.571C206.081 110.785 206.149 111.03 206.149 111.305C206.149 111.654 206.045 111.943 205.838 112.171C205.63 112.398 205.32 112.541 204.907 112.6C205.112 112.718 205.281 112.849 205.414 112.99C205.549 113.132 205.73 113.384 205.957 113.746L206.531 114.654H205.395L204.708 113.641C204.464 113.279 204.297 113.052 204.207 112.959C204.117 112.863 204.022 112.799 203.922 112.765C203.821 112.729 203.662 112.711 203.443 112.711H203.251V114.654H202.3ZM203.251 111.968H203.954C204.409 111.968 204.694 111.949 204.807 111.911C204.921 111.873 205.01 111.807 205.074 111.714C205.138 111.621 205.17 111.505 205.17 111.365C205.17 111.208 205.127 111.082 205.042 110.987C204.958 110.89 204.84 110.829 204.686 110.803C204.608 110.793 204.377 110.787 203.992 110.787H203.251V111.968Z" fill="white"/>
<circle cx="204.311" cy="112.369" r="3.93077" stroke="white" stroke-width="0.6"/>
<path d="M160.027 149.691V138.351C160.721 137.946 161.915 137.353 163.803 137.353C166.636 137.353 168.087 137.587 169.468 139.258C170.239 140.432 170.465 142.689 170.412 149.691H166.961C166.961 142.18 166.961 140.685 164.748 140.346C164.118 140.343 163.821 140.42 163.331 140.619V149.691H160.027Z" fill="white"/>
<path d="M227.531 149.691V138.351C228.225 137.946 229.419 137.353 231.307 137.353C234.14 137.353 235.591 137.587 236.972 139.258C237.743 140.432 237.969 142.689 237.916 149.691H234.465C234.465 142.18 234.465 140.685 232.252 140.346C231.622 140.343 231.325 140.42 230.835 140.619V149.691H227.531Z" fill="white"/>
<path d="M204.872 134.268H201.096V150.144H211.953V146.969H204.872V134.268Z" fill="white"/>
<path fill-rule="evenodd" clip-rule="evenodd" d="M74.1128 137.897L74.5848 140.619C76.9616 140.097 78.1103 139.984 79.3054 140.619C80.021 141.05 80.2409 141.439 80.2495 142.433C77.0108 142.117 75.2384 141.996 73.6407 143.794C72.3681 145.226 72.6966 148.33 74.5848 149.237C76.4071 150.343 78.8333 150.144 82.1377 149.691C82.9458 149.545 83.2872 149.436 83.5539 149.237V141.979C83.5539 139.258 81.8822 137.623 79.3054 137.443C77.1262 137.291 76.0212 137.467 74.1128 137.897ZM80.2495 147.423V144.701C77.3812 144.487 76.44 144.724 76.4731 146.062C76.5109 147.249 77.1606 147.628 80.2495 147.423Z" fill="white"/>
<path fill-rule="evenodd" clip-rule="evenodd" d="M129.343 137.897L129.815 140.619C132.192 140.097 133.341 139.984 134.536 140.619C135.252 141.05 135.471 141.439 135.48 142.433C132.241 142.117 130.469 141.996 128.871 143.794C127.599 145.226 127.927 148.33 129.815 149.237C131.638 150.343 134.064 150.144 137.368 149.691C138.176 149.545 138.518 149.436 138.784 149.237V141.979C138.784 139.258 137.113 137.623 134.536 137.443C132.357 137.291 131.252 137.467 129.343 137.897ZM135.48 147.423V144.701C132.612 144.487 131.671 144.724 131.704 146.062C131.741 147.249 132.391 147.628 135.48 147.423Z" fill="white"/>
<path d="M115.654 134.268H119.43V146.969H126.511V150.144H115.654V134.268Z" fill="white"/>
<path d="M140.201 137.897L144.449 149.691L146.809 149.691L149.17 142.887L151.53 149.691L153.89 149.691L158.139 137.897H154.362L152.474 145.608L150.586 137.897H147.753L145.865 145.608L143.977 137.897H140.201Z" fill="white"/>
<path d="M96.7715 132.454V149.691H100.076V144.701C101.396 145.637 102.284 146.604 104.324 149.691L108.101 149.691C106.636 146.724 105.511 145.232 102.908 142.887C104.612 141.881 105.859 140.467 108.101 137.897H103.852L100.076 141.979V132L96.7715 132.454Z" fill="white"/>
<path d="M86.8583 138.351V149.691H90.1627V140.619C91.6378 140.333 92.6052 140.319 94.0807 140.619L94.8832 137.897C91.5661 137.034 89.8565 137.401 86.8583 138.351Z" fill="white"/>
<path d="M53.8144 138.351V149.691H57.1188V140.619C57.6081 140.42 57.9056 140.343 58.5349 140.346C60.7485 140.685 60.7485 142.18 60.7485 149.691H64.1996C64.2355 144.94 64.1429 142.373 63.8389 140.847C64.26 140.566 64.5267 140.438 65.1437 140.346C66.6652 140.285 67.504 141.072 67.504 142.887V149.691H70.8084V141.979C70.7025 139.726 70.2162 139.338 69.3922 138.556C67.9761 137.353 65.1437 136.99 62.5754 138.556C61.3695 137.518 59.9659 137.353 57.5908 137.353C55.7026 137.353 54.5085 137.946 53.8144 138.351Z" fill="white"/>
<path fill-rule="evenodd" clip-rule="evenodd" d="M47.2056 137.897C45.2906 137.43 43.7355 137.273 42.485 137.897C40.3733 138.95 39.4656 139.961 39.1806 143.794C39.1806 147.423 41.5409 150.144 45.3174 150.144C47.6776 150.144 49.2919 150.029 50.51 149.237V132L47.2056 132.454V137.897ZM47.2056 146.969V141.072C45.7894 139.711 43.4291 140.165 42.9571 141.979C42.7918 142.805 42.7382 143.794 42.9571 144.701C43.5124 147.003 44.5885 147.311 47.2056 146.969Z" fill="white"/>
<path d="M26.4351 138.351V149.691H29.7395V140.619C30.2289 140.42 30.5264 140.343 31.1557 140.346C33.3692 140.685 33.3692 142.18 33.3692 149.691H36.8204C36.8733 142.689 36.647 140.432 35.8763 139.258C34.4947 137.587 33.0439 137.353 30.2116 137.353C28.3234 137.353 27.1293 137.946 26.4351 138.351Z" fill="white"/>
<path fill-rule="evenodd" clip-rule="evenodd" d="M13.6896 137.897L14.1617 140.619C16.5384 140.097 17.6871 139.984 18.8822 140.619C19.5978 141.05 19.8177 141.439 19.8263 142.433C16.5876 142.117 14.8153 141.996 13.2176 143.794C11.9449 145.226 12.2735 148.33 14.1617 149.237C15.984 150.343 18.4102 150.144 21.7146 149.691C22.5226 149.545 22.864 149.436 23.1307 149.237V141.979C23.1307 139.258 21.4591 137.623 18.8822 137.443C16.703 137.291 15.5981 137.467 13.6896 137.897ZM19.8263 147.423V144.701C16.958 144.487 16.0168 144.724 16.0499 146.062C16.0877 147.249 16.7375 147.628 19.8263 147.423Z" fill="white"/>
<path d="M0 133.814H3.77645V146.516H10.8573V149.691H0V133.814Z" fill="white"/>
<path fill-rule="evenodd" clip-rule="evenodd" d="M190.239 149.691H193.543C193.148 148.487 192.477 147.63 191.183 146.062C191.611 145.034 192.054 144.358 192.41 141.979L189.578 141.617C189.298 142.863 189.129 143.391 188.822 144.247C188.09 143.28 187.539 142.672 186.462 141.526C188.989 139.067 189.584 137.692 188.822 135.629C187.843 133.694 185.173 133.331 183.158 133.814C180.449 134.464 179.381 137.443 180.325 139.258C180.51 139.587 180.703 139.898 181.364 140.891C178.873 142.402 177.965 144.247 178.437 146.516C178.712 147.96 179.321 148.66 181.269 149.691C183.245 150.213 184.268 150.169 185.99 149.691C187.125 149.344 187.839 148.955 188.917 148.239C189.192 148.479 189.423 148.719 190.239 149.691ZM183.063 137.443C183.049 138.441 183.377 138.944 184.291 139.802C185.465 139.062 186.061 138.625 185.99 137.443C185.811 136.318 185.161 136.082 184.574 136.082C184.102 136.082 183.136 136.324 183.063 137.443ZM181.742 146.062C180.962 144.938 181.994 143.483 183.347 142.887L186.934 146.516C184.485 147.801 182.686 147.423 181.742 146.062Z" fill="white"/>
<path d="M263.407 137.897L262.463 140.619L262.353 140.582C260.693 140.036 259.728 139.718 258.687 140.165C258.004 140.564 257.864 140.853 258.215 141.526C258.446 141.893 259.002 142.179 261.047 142.887C262.114 143.313 262.735 143.508 263.407 144.701C263.784 145.438 263.892 145.943 263.879 146.969C263.784 148.02 263.507 148.529 262.463 149.237C260.863 149.94 260.059 150.073 258.687 150.144C256.867 150.239 255.945 150.027 254.438 149.237L254.91 146.516C256.681 147.223 257.57 147.496 258.687 147.423C260.575 147.423 260.575 146.062 259.631 145.608C257.418 144.914 256.616 144.518 255.854 143.794C255.128 142.855 254.7 142.282 254.721 141.072C254.737 139.248 255.473 138.661 256.798 137.897C257.877 137.449 258.721 137.361 260.575 137.443C261.786 137.509 262.382 137.633 263.407 137.897Z" fill="white"/>
<path d="M268.6 138.351C267.46 139.09 266.877 139.588 266.24 141.072C265.919 141.744 265.793 142.276 265.767 143.794C265.744 144.943 265.856 145.537 266.24 146.516C266.918 147.924 267.386 148.589 268.6 149.237C269.79 149.846 270.506 150.062 271.904 150.144C273.505 150.128 274.347 149.867 275.681 149.509L275.209 146.516C273.792 147.423 270.488 147.423 269.544 145.608C268.6 143.794 269.403 141.514 270.96 140.619C271.904 140.076 273.792 140.165 274.737 140.619L275.681 138.078C274.266 137.51 273.447 137.322 271.904 137.443C270.726 137.578 270.025 137.732 268.6 138.351Z" fill="white"/>
<path fill-rule="evenodd" clip-rule="evenodd" d="M278.041 137.897L278.513 140.619C280.89 140.097 282.038 139.984 283.234 140.619C283.949 141.05 284.169 141.439 284.178 142.433C280.939 142.117 279.167 141.996 277.569 143.794C276.296 145.226 276.625 148.33 278.513 149.237C280.335 150.343 282.762 150.144 286.066 149.691C286.874 149.545 287.215 149.436 287.482 149.237V141.979C287.482 139.258 285.81 137.623 283.234 137.443C281.054 137.291 279.949 137.467 278.041 137.897ZM284.178 147.423V144.701C281.309 144.487 280.368 144.724 280.401 146.062C280.439 147.249 281.089 147.628 284.178 147.423Z" fill="white"/>
<path fill-rule="evenodd" clip-rule="evenodd" d="M290.314 138.351V154H293.759V149.525C296.677 150.431 297.786 150.235 299.283 149.237C300.767 147.956 301.391 147.057 301.644 144.701C302.116 140.165 299.283 137.897 296.451 137.443C294.589 137.145 292.167 137.471 290.314 138.351ZM293.619 146.516V140.619C295.908 140.039 296.913 140.203 297.867 141.979C298.811 143.794 298.108 145.948 297.395 146.516C296.212 147.457 295.312 147.218 293.619 146.516Z" fill="white"/>
<path fill-rule="evenodd" clip-rule="evenodd" d="M308.725 137.443C305.041 137.882 302.847 141.647 304.004 145.608C304.438 147.093 304.687 147.741 305.892 148.784C306.777 149.413 307.321 149.933 309.669 150.144C311.134 150.226 312.543 150.097 313.445 149.691C313.915 149.496 314.155 149.373 314.389 149.237L313.917 146.516C310.84 147.409 309.461 147.394 308.253 146.516C307.433 145.812 307.284 145.355 307.308 144.701H315.333C315.331 141.753 315.038 140.861 313.917 139.258C313.427 138.557 312.174 137.652 310.613 137.443C309.816 137.337 309.372 137.351 308.725 137.443ZM309.669 140.165C308.15 140.362 307.702 140.939 307.308 142.433H312.029C311.486 140.649 310.937 140.229 309.669 140.165Z" fill="white"/>
<path fill-rule="evenodd" clip-rule="evenodd" d="M248.773 137.897C246.858 137.43 245.303 137.273 244.053 137.897C241.941 138.95 241.033 139.961 240.749 143.794C240.749 147.423 243.109 150.144 246.885 150.144C249.246 150.144 250.86 150.029 252.078 149.237V132L248.773 132.454V137.897ZM248.773 146.969V141.072C247.357 139.711 244.997 140.165 244.525 141.979C244.36 142.805 244.306 143.794 244.525 144.701C245.08 147.003 246.156 147.311 248.773 146.969Z" fill="white"/>
<path fill-rule="evenodd" clip-rule="evenodd" d="M214.785 137.897L215.257 140.619C217.634 140.097 218.783 139.984 219.978 140.619C220.694 141.05 220.914 141.439 220.922 142.433C217.683 142.117 215.911 141.996 214.313 143.794C213.041 145.226 213.369 148.33 215.257 149.237C217.08 150.343 219.506 150.144 222.81 149.691C223.618 149.545 223.96 149.436 224.227 149.237V141.979C224.227 139.258 222.555 137.623 219.978 137.443C217.799 137.291 216.694 137.467 214.785 137.897ZM220.922 147.423V144.701C218.054 144.487 217.113 144.724 217.146 146.062C217.184 147.249 217.833 147.628 220.922 147.423Z" fill="white"/>
</svg>
